<svg viewBox="0 0 24 24" fill="none" xmlns="http://www.w3.org/2000/svg">
  <path d="M3.75 6.75H6.96482C7.29917 6.75 7.6114 6.5829 7.79687 6.3047L9.20313 4.1953C9.3886 3.9171 9.70083 3.75 10.0352 3.75H13.9648C14.2992 3.75 14.6114 3.9171 14.7969 4.1953L16.2031 6.3047C16.3886 6.5829 16.7008 6.75 17.0352 6.75H20.25C20.8023 6.75 21.25 7.19772 21.25 7.75V19.25C21.25 19.8023 20.8023 20.25 20.25 20.25H3.75C3.19772 20.25 2.75 19.8023 2.75 19.25V7.75C2.75 7.19772 3.19772 6.75 3.75 6.75Z" stroke="currentColor" stroke-width="1.5" stroke-linecap="square" stroke-linejoin="round"/>
  <path d="M15.25 13C15.25 14.7949 13.7949 16.25 12 16.25C10.2051 16.25 8.75 14.7949 8.75 13C8.75 11.2051 10.2051 9.75 12 9.75C13.7949 9.75 15.25 11.2051 15.25 13Z" stroke="currentColor" stroke-width="1.5" stroke-linecap="square" stroke-linejoin="round"/>
</svg>