<svg width="24" height="24" viewBox="0 0 24 24" fill="none" xmlns="http://www.w3.org/2000/svg">
<g id="Layer_1" clip-path="url(#clip0_2580_4070)">
<g id="Layer_x0020_1">
<g id="_2405588477232">
<g id="Group">
<g id="Group_2">
<path id="Vector" d="M0.978516 7.29595V16.7039C0.978516 17.3087 1.33372 17.8559 1.92572 18.1631L11.064 22.8671C11.6453 23.1647 12.3664 23.1647 12.9477 22.8671L22.086 18.1631C22.6672 17.8655 23.0332 17.3087 23.0332 16.7039V7.29595C23.0332 6.69115 22.678 6.14395 22.086 5.83675L12.9477 1.13275C12.3664 0.835146 11.6453 0.835146 11.064 1.13275L1.92572 5.83675C1.34448 6.13435 0.989279 6.69115 0.989279 7.29595H0.978516Z" fill="#213147"/>
<g id="Group_3">
<g id="Group_4">
<g id="Group_5">
<path id="Vector_2" d="M13.9907 13.8241L12.6883 17.0113C12.656 17.0977 12.656 17.1937 12.6883 17.2897L14.9271 22.7713L17.5212 21.4369L14.4105 13.8241C14.3351 13.6513 14.066 13.6513 13.9907 13.8241Z" fill="#12AAFF"/>
</g>
<g id="Group_6">
<path id="Vector_3" d="M16.6058 8.46725C16.5304 8.29445 16.2613 8.29445 16.186 8.46725L14.8836 11.6544C14.8513 11.7408 14.8513 11.8368 14.8836 11.9328L18.554 20.9088L21.148 19.5744L16.6058 8.47685V8.46725Z" fill="#12AAFF"/>
</g>
</g>
</g>
<g id="Group_7">
<path id="Vector_4" d="M12.0003 1.488C12.0649 1.488 12.1295 1.5072 12.1833 1.536L22.0643 6.624C22.1827 6.6816 22.2473 6.7968 22.2473 6.912V17.088C22.2473 17.2032 22.172 17.3184 22.0643 17.376L12.1833 22.464C12.1295 22.4928 12.0649 22.512 12.0003 22.512C11.9357 22.512 11.8712 22.4928 11.8173 22.464L1.93633 17.376C1.81793 17.3184 1.75335 17.2032 1.75335 17.088V6.9024C1.75335 6.7872 1.82869 6.672 1.93633 6.6144L11.8173 1.5264C11.8712 1.4976 11.9357 1.4784 12.0003 1.4784V1.488ZM12.0003 0C11.6451 0 11.3007 0.0768 10.9778 0.24L1.09676 5.328C0.46171 5.6544 0.0742188 6.2496 0.0742188 6.9024V17.0784C0.0742188 17.7312 0.46171 18.3264 1.09676 18.6528L10.9778 23.7408C11.2899 23.904 11.6451 23.9808 12.0003 23.9808C12.3555 23.9808 12.7 23.904 13.0229 23.7408L22.9039 18.6528C23.5389 18.3264 23.9264 17.7312 23.9264 17.0784V6.9024C23.9264 6.2496 23.5389 5.6544 22.9039 5.328L13.0121 0.24C12.7 0.0768 12.3448 0 11.9896 0H12.0003Z" fill="#9DCCED"/>
</g>
<path id="Vector_5" d="M5.45703 20.9184L6.37194 18.6912L8.20176 20.0448L6.49034 21.4464L5.45703 20.9184Z" fill="#213147"/>
<g id="Group_8">
<path id="Vector_6" d="M11.162 6.18245H8.65412C8.47114 6.18245 8.29892 6.28805 8.23434 6.44165L2.86328 19.5745L5.45732 20.9089L11.3773 6.44165C11.4311 6.30725 11.3235 6.17285 11.1728 6.17285L11.162 6.18245Z" fill="white"/>
<path id="Vector_7" d="M15.5532 6.18245H13.0453C12.8623 6.18245 12.6901 6.28805 12.6255 6.44165L6.49023 21.4369L9.08427 22.7713L15.7577 6.44165C15.8115 6.30725 15.7039 6.17285 15.5532 6.17285V6.18245Z" fill="white"/>
</g>
</g>
</g>
</g>
</g>
</g>
<defs>
<clipPath id="clip0_2580_4070">
<rect width="24" height="24" fill="white"/>
</clipPath>
</defs>
</svg>
