<svg width="225" height="74" viewBox="0 0 225 74" fill="none" xmlns="http://www.w3.org/2000/svg">
<path d="M116.969 1.19355C116.969 1.85273 116.435 2.3871 115.775 2.3871C115.116 2.3871 114.582 1.85273 114.582 1.19355C114.582 0.53437 115.116 0 115.775 0C116.435 0 116.969 0.53437 116.969 1.19355Z" fill="black" fill-opacity="0.26"/>
<path d="M2.3871 1.19355C2.3871 1.85273 1.85273 2.3871 1.19355 2.3871C0.53437 2.3871 0 1.85273 0 1.19355C0 0.53437 0.53437 0 1.19355 0C1.85273 0 2.3871 0.53437 2.3871 1.19355Z" fill="black" fill-opacity="0.26"/>
<path d="M116.969 8.35483C116.969 9.01401 116.435 9.54838 115.775 9.54838C115.116 9.54838 114.582 9.01401 114.582 8.35483C114.582 7.69565 115.116 7.16128 115.775 7.16128C116.435 7.16128 116.969 7.69565 116.969 8.35483Z" fill="black" fill-opacity="0.26"/>
<path d="M2.3871 8.35483C2.3871 9.01401 1.85273 9.54838 1.19355 9.54838C0.53437 9.54838 0 9.01401 0 8.35483C0 7.69565 0.53437 7.16128 1.19355 7.16128C1.85273 7.16128 2.3871 7.69565 2.3871 8.35483Z" fill="black" fill-opacity="0.26"/>
<path d="M116.969 15.5161C116.969 16.1753 116.435 16.7097 115.775 16.7097C115.116 16.7097 114.582 16.1753 114.582 15.5161C114.582 14.857 115.116 14.3226 115.775 14.3226C116.435 14.3226 116.969 14.857 116.969 15.5161Z" fill="black" fill-opacity="0.26"/>
<path d="M2.3871 15.5161C2.3871 16.1753 1.85273 16.7097 1.19355 16.7097C0.53437 16.7097 0 16.1753 0 15.5161C0 14.857 0.53437 14.3226 1.19355 14.3226C1.85273 14.3226 2.3871 14.857 2.3871 15.5161Z" fill="black" fill-opacity="0.26"/>
<path d="M116.969 22.6774C116.969 23.3366 116.435 23.871 115.775 23.871C115.116 23.871 114.582 23.3366 114.582 22.6774C114.582 22.0182 115.116 21.4839 115.775 21.4839C116.435 21.4839 116.969 22.0182 116.969 22.6774Z" fill="black" fill-opacity="0.26"/>
<path d="M2.3871 22.6774C2.3871 23.3366 1.85273 23.871 1.19355 23.871C0.53437 23.871 0 23.3366 0 22.6774C0 22.0182 0.53437 21.4839 1.19355 21.4839C1.85273 21.4839 2.3871 22.0182 2.3871 22.6774Z" fill="black" fill-opacity="0.26"/>
<path d="M116.969 29.8387C116.969 30.4979 116.435 31.0322 115.775 31.0322C115.116 31.0322 114.582 30.4979 114.582 29.8387C114.582 29.1795 115.116 28.6452 115.775 28.6452C116.435 28.6452 116.969 29.1795 116.969 29.8387Z" fill="black" fill-opacity="0.26"/>
<path d="M2.3871 29.8387C2.3871 30.4979 1.85273 31.0322 1.19355 31.0322C0.53437 31.0322 0 30.4979 0 29.8387C0 29.1795 0.53437 28.6452 1.19355 28.6452C1.85273 28.6452 2.3871 29.1795 2.3871 29.8387Z" fill="black" fill-opacity="0.26"/>
<path d="M116.969 37C116.969 37.6592 116.435 38.1936 115.775 38.1936C115.116 38.1936 114.582 37.6592 114.582 37C114.582 36.3408 115.116 35.8065 115.775 35.8065C116.435 35.8065 116.969 36.3408 116.969 37Z" fill="black" fill-opacity="0.26"/>
<path d="M2.3871 37C2.3871 37.6592 1.85273 38.1936 1.19355 38.1936C0.53437 38.1936 0 37.6592 0 37C0 36.3408 0.53437 35.8065 1.19355 35.8065C1.85273 35.8065 2.3871 36.3408 2.3871 37Z" fill="black" fill-opacity="0.26"/>
<path d="M116.969 44.1613C116.969 44.8205 116.435 45.3548 115.775 45.3548C115.116 45.3548 114.582 44.8205 114.582 44.1613C114.582 43.5021 115.116 42.9677 115.775 42.9677C116.435 42.9677 116.969 43.5021 116.969 44.1613Z" fill="black" fill-opacity="0.26"/>
<path d="M2.3871 44.1613C2.3871 44.8205 1.85273 45.3548 1.19355 45.3548C0.53437 45.3548 0 44.8205 0 44.1613C0 43.5021 0.53437 42.9677 1.19355 42.9677C1.85273 42.9677 2.3871 43.5021 2.3871 44.1613Z" fill="black" fill-opacity="0.26"/>
<path d="M116.969 51.3226C116.969 51.9817 116.435 52.5161 115.775 52.5161C115.116 52.5161 114.582 51.9817 114.582 51.3226C114.582 50.6634 115.116 50.129 115.775 50.129C116.435 50.129 116.969 50.6634 116.969 51.3226Z" fill="black" fill-opacity="0.26"/>
<path d="M2.3871 51.3226C2.3871 51.9817 1.85273 52.5161 1.19355 52.5161C0.53437 52.5161 0 51.9817 0 51.3226C0 50.6634 0.53437 50.129 1.19355 50.129C1.85273 50.129 2.3871 50.6634 2.3871 51.3226Z" fill="black" fill-opacity="0.26"/>
<path d="M116.969 58.4839C116.969 59.1431 116.435 59.6774 115.775 59.6774C115.116 59.6774 114.582 59.1431 114.582 58.4839C114.582 57.8247 115.116 57.2903 115.775 57.2903C116.435 57.2903 116.969 57.8247 116.969 58.4839Z" fill="black" fill-opacity="0.26"/>
<path d="M2.3871 58.4839C2.3871 59.1431 1.85273 59.6774 1.19355 59.6774C0.53437 59.6774 0 59.1431 0 58.4839C0 57.8247 0.53437 57.2903 1.19355 57.2903C1.85273 57.2903 2.3871 57.8247 2.3871 58.4839Z" fill="black" fill-opacity="0.26"/>
<path d="M116.969 65.6452C116.969 66.3043 116.435 66.8387 115.775 66.8387C115.116 66.8387 114.582 66.3043 114.582 65.6452C114.582 64.986 115.116 64.4516 115.775 64.4516C116.435 64.4516 116.969 64.986 116.969 65.6452Z" fill="black" fill-opacity="0.26"/>
<path d="M2.3871 65.6452C2.3871 66.3043 1.85273 66.8387 1.19355 66.8387C0.53437 66.8387 0 66.3043 0 65.6452C0 64.986 0.53437 64.4516 1.19355 64.4516C1.85273 64.4516 2.3871 64.986 2.3871 65.6452Z" fill="black" fill-opacity="0.26"/>
<path d="M116.969 72.8064C116.969 73.4656 116.435 74 115.775 74C115.116 74 114.582 73.4656 114.582 72.8064C114.582 72.1473 115.116 71.6129 115.775 71.6129C116.435 71.6129 116.969 72.1473 116.969 72.8064Z" fill="black" fill-opacity="0.26"/>
<path d="M2.3871 72.8064C2.3871 73.4656 1.85273 74 1.19355 74C0.53437 74 0 73.4656 0 72.8064C0 72.1473 0.53437 71.6129 1.19355 71.6129C1.85273 71.6129 2.3871 72.1473 2.3871 72.8064Z" fill="black" fill-opacity="0.26"/>
<path d="M124.13 1.19355C124.13 1.85273 123.595 2.3871 122.936 2.3871C122.277 2.3871 121.742 1.85273 121.742 1.19355C121.742 0.53437 122.277 0 122.936 0C123.595 0 124.13 0.53437 124.13 1.19355Z" fill="black" fill-opacity="0.26"/>
<path d="M9.54725 1.19355C9.54725 1.85273 9.01288 2.3871 8.3537 2.3871C7.69453 2.3871 7.16016 1.85273 7.16016 1.19355C7.16016 0.53437 7.69453 0 8.3537 0C9.01288 0 9.54725 0.53437 9.54725 1.19355Z" fill="black" fill-opacity="0.26"/>
<path d="M124.13 8.35483C124.13 9.01401 123.595 9.54838 122.936 9.54838C122.277 9.54838 121.742 9.01401 121.742 8.35483C121.742 7.69565 122.277 7.16128 122.936 7.16128C123.595 7.16128 124.13 7.69565 124.13 8.35483Z" fill="black" fill-opacity="0.26"/>
<path d="M9.54725 8.35483C9.54725 9.01401 9.01288 9.54838 8.3537 9.54838C7.69453 9.54838 7.16016 9.01401 7.16016 8.35483C7.16016 7.69566 7.69453 7.16129 8.3537 7.16129C9.01288 7.16129 9.54725 7.69566 9.54725 8.35483Z" fill="black" fill-opacity="0.26"/>
<path d="M124.13 15.5161C124.13 16.1753 123.595 16.7097 122.936 16.7097C122.277 16.7097 121.742 16.1753 121.742 15.5161C121.742 14.857 122.277 14.3226 122.936 14.3226C123.595 14.3226 124.13 14.857 124.13 15.5161Z" fill="black" fill-opacity="0.26"/>
<path d="M9.54725 15.5161C9.54725 16.1753 9.01288 16.7097 8.3537 16.7097C7.69453 16.7097 7.16016 16.1753 7.16016 15.5161C7.16016 14.857 7.69453 14.3226 8.3537 14.3226C9.01288 14.3226 9.54725 14.857 9.54725 15.5161Z" fill="black" fill-opacity="0.26"/>
<path d="M124.13 22.6774C124.13 23.3366 123.595 23.871 122.936 23.871C122.277 23.871 121.742 23.3366 121.742 22.6774C121.742 22.0182 122.277 21.4839 122.936 21.4839C123.595 21.4839 124.13 22.0182 124.13 22.6774Z" fill="black" fill-opacity="0.26"/>
<path d="M9.54725 22.6774C9.54725 23.3366 9.01288 23.871 8.3537 23.871C7.69453 23.871 7.16016 23.3366 7.16016 22.6774C7.16016 22.0183 7.69453 21.4839 8.3537 21.4839C9.01288 21.4839 9.54725 22.0183 9.54725 22.6774Z" fill="black" fill-opacity="0.26"/>
<path d="M124.13 29.8387C124.13 30.4979 123.595 31.0322 122.936 31.0322C122.277 31.0322 121.742 30.4979 121.742 29.8387C121.742 29.1795 122.277 28.6452 122.936 28.6452C123.595 28.6452 124.13 29.1795 124.13 29.8387Z" fill="black" fill-opacity="0.26"/>
<path d="M9.54725 29.8387C9.54725 30.4979 9.01288 31.0322 8.3537 31.0322C7.69453 31.0322 7.16016 30.4979 7.16016 29.8387C7.16016 29.1795 7.69453 28.6451 8.3537 28.6451C9.01288 28.6451 9.54725 29.1795 9.54725 29.8387Z" fill="black" fill-opacity="0.26"/>
<path d="M124.13 37C124.13 37.6592 123.595 38.1936 122.936 38.1936C122.277 38.1936 121.742 37.6592 121.742 37C121.742 36.3408 122.277 35.8065 122.936 35.8065C123.595 35.8065 124.13 36.3408 124.13 37Z" fill="black" fill-opacity="0.26"/>
<path d="M9.54725 37C9.54725 37.6592 9.01288 38.1936 8.3537 38.1936C7.69453 38.1936 7.16016 37.6592 7.16016 37C7.16016 36.3408 7.69453 35.8065 8.3537 35.8065C9.01288 35.8065 9.54725 36.3408 9.54725 37Z" fill="black" fill-opacity="0.26"/>
<path d="M124.13 44.1613C124.13 44.8205 123.595 45.3548 122.936 45.3548C122.277 45.3548 121.742 44.8205 121.742 44.1613C121.742 43.5021 122.277 42.9677 122.936 42.9677C123.595 42.9677 124.13 43.5021 124.13 44.1613Z" fill="black" fill-opacity="0.26"/>
<path d="M9.54725 44.1613C9.54725 44.8205 9.01288 45.3548 8.3537 45.3548C7.69453 45.3548 7.16016 44.8205 7.16016 44.1613C7.16016 43.5021 7.69453 42.9677 8.3537 42.9677C9.01288 42.9677 9.54725 43.5021 9.54725 44.1613Z" fill="black" fill-opacity="0.26"/>
<path d="M124.13 51.3226C124.13 51.9817 123.595 52.5161 122.936 52.5161C122.277 52.5161 121.742 51.9817 121.742 51.3226C121.742 50.6634 122.277 50.129 122.936 50.129C123.595 50.129 124.13 50.6634 124.13 51.3226Z" fill="black" fill-opacity="0.26"/>
<path d="M9.54725 51.3226C9.54725 51.9818 9.01288 52.5161 8.3537 52.5161C7.69453 52.5161 7.16016 51.9818 7.16016 51.3226C7.16016 50.6634 7.69453 50.129 8.3537 50.129C9.01288 50.129 9.54725 50.6634 9.54725 51.3226Z" fill="black" fill-opacity="0.26"/>
<path d="M124.13 58.4839C124.13 59.1431 123.595 59.6774 122.936 59.6774C122.277 59.6774 121.742 59.1431 121.742 58.4839C121.742 57.8247 122.277 57.2903 122.936 57.2903C123.595 57.2903 124.13 57.8247 124.13 58.4839Z" fill="black" fill-opacity="0.26"/>
<path d="M9.54725 58.4839C9.54725 59.1431 9.01288 59.6774 8.3537 59.6774C7.69453 59.6774 7.16016 59.1431 7.16016 58.4839C7.16016 57.8247 7.69453 57.2903 8.3537 57.2903C9.01288 57.2903 9.54725 57.8247 9.54725 58.4839Z" fill="black" fill-opacity="0.26"/>
<path d="M124.13 65.6452C124.13 66.3043 123.595 66.8387 122.936 66.8387C122.277 66.8387 121.742 66.3043 121.742 65.6452C121.742 64.986 122.277 64.4516 122.936 64.4516C123.595 64.4516 124.13 64.986 124.13 65.6452Z" fill="black" fill-opacity="0.26"/>
<path d="M9.54725 65.6451C9.54725 66.3043 9.01288 66.8387 8.3537 66.8387C7.69453 66.8387 7.16016 66.3043 7.16016 65.6451C7.16016 64.986 7.69453 64.4516 8.3537 64.4516C9.01288 64.4516 9.54725 64.986 9.54725 65.6451Z" fill="black" fill-opacity="0.26"/>
<path d="M124.13 72.8064C124.13 73.4656 123.595 74 122.936 74C122.277 74 121.742 73.4656 121.742 72.8064C121.742 72.1473 122.277 71.6129 122.936 71.6129C123.595 71.6129 124.13 72.1473 124.13 72.8064Z" fill="black" fill-opacity="0.26"/>
<path d="M9.54725 72.8064C9.54725 73.4656 9.01288 74 8.3537 74C7.69453 74 7.16016 73.4656 7.16016 72.8064C7.16016 72.1473 7.69453 71.6129 8.3537 71.6129C9.01288 71.6129 9.54725 72.1473 9.54725 72.8064Z" fill="black" fill-opacity="0.26"/>
<path d="M131.289 1.19355C131.289 1.85273 130.755 2.3871 130.096 2.3871C129.437 2.3871 128.902 1.85273 128.902 1.19355C128.902 0.53437 129.437 0 130.096 0C130.755 0 131.289 0.53437 131.289 1.19355Z" fill="black" fill-opacity="0.26"/>
<path d="M16.7074 1.19355C16.7074 1.85273 16.173 2.3871 15.5139 2.3871C14.8547 2.3871 14.3203 1.85273 14.3203 1.19355C14.3203 0.53437 14.8547 0 15.5139 0C16.173 0 16.7074 0.53437 16.7074 1.19355Z" fill="black" fill-opacity="0.26"/>
<path d="M131.289 8.35483C131.289 9.01401 130.755 9.54838 130.096 9.54838C129.437 9.54838 128.902 9.01401 128.902 8.35483C128.902 7.69566 129.437 7.16129 130.096 7.16129C130.755 7.16129 131.289 7.69566 131.289 8.35483Z" fill="black" fill-opacity="0.26"/>
<path d="M16.7074 8.35483C16.7074 9.01401 16.173 9.54838 15.5139 9.54838C14.8547 9.54838 14.3203 9.01401 14.3203 8.35483C14.3203 7.69566 14.8547 7.16129 15.5139 7.16129C16.173 7.16129 16.7074 7.69566 16.7074 8.35483Z" fill="black" fill-opacity="0.26"/>
<path d="M131.289 15.5161C131.289 16.1753 130.755 16.7097 130.096 16.7097C129.437 16.7097 128.902 16.1753 128.902 15.5161C128.902 14.857 129.437 14.3226 130.096 14.3226C130.755 14.3226 131.289 14.857 131.289 15.5161Z" fill="black" fill-opacity="0.26"/>
<path d="M16.7074 15.5161C16.7074 16.1753 16.173 16.7097 15.5139 16.7097C14.8547 16.7097 14.3203 16.1753 14.3203 15.5161C14.3203 14.857 14.8547 14.3226 15.5139 14.3226C16.173 14.3226 16.7074 14.857 16.7074 15.5161Z" fill="black" fill-opacity="0.26"/>
<path d="M131.289 22.6774C131.289 23.3366 130.755 23.871 130.096 23.871C129.437 23.871 128.902 23.3366 128.902 22.6774C128.902 22.0183 129.437 21.4839 130.096 21.4839C130.755 21.4839 131.289 22.0183 131.289 22.6774Z" fill="black" fill-opacity="0.26"/>
<path d="M16.7074 22.6774C16.7074 23.3366 16.173 23.871 15.5139 23.871C14.8547 23.871 14.3203 23.3366 14.3203 22.6774C14.3203 22.0183 14.8547 21.4839 15.5139 21.4839C16.173 21.4839 16.7074 22.0183 16.7074 22.6774Z" fill="black" fill-opacity="0.26"/>
<path d="M131.289 29.8387C131.289 30.4979 130.755 31.0322 130.096 31.0322C129.437 31.0322 128.902 30.4979 128.902 29.8387C128.902 29.1795 129.437 28.6451 130.096 28.6451C130.755 28.6451 131.289 29.1795 131.289 29.8387Z" fill="black" fill-opacity="0.26"/>
<path d="M16.7074 29.8387C16.7074 30.4979 16.173 31.0322 15.5139 31.0322C14.8547 31.0322 14.3203 30.4979 14.3203 29.8387C14.3203 29.1795 14.8547 28.6451 15.5139 28.6451C16.173 28.6451 16.7074 29.1795 16.7074 29.8387Z" fill="black" fill-opacity="0.26"/>
<path d="M131.289 37C131.289 37.6592 130.755 38.1936 130.096 38.1936C129.437 38.1936 128.902 37.6592 128.902 37C128.902 36.3408 129.437 35.8065 130.096 35.8065C130.755 35.8065 131.289 36.3408 131.289 37Z" fill="black" fill-opacity="0.26"/>
<path d="M16.7074 37C16.7074 37.6592 16.173 38.1936 15.5139 38.1936C14.8547 38.1936 14.3203 37.6592 14.3203 37C14.3203 36.3408 14.8547 35.8065 15.5139 35.8065C16.173 35.8065 16.7074 36.3408 16.7074 37Z" fill="black" fill-opacity="0.26"/>
<path d="M131.289 44.1613C131.289 44.8205 130.755 45.3548 130.096 45.3548C129.437 45.3548 128.902 44.8205 128.902 44.1613C128.902 43.5021 129.437 42.9677 130.096 42.9677C130.755 42.9677 131.289 43.5021 131.289 44.1613Z" fill="black" fill-opacity="0.26"/>
<path d="M16.7074 44.1613C16.7074 44.8205 16.173 45.3548 15.5139 45.3548C14.8547 45.3548 14.3203 44.8205 14.3203 44.1613C14.3203 43.5021 14.8547 42.9677 15.5139 42.9677C16.173 42.9677 16.7074 43.5021 16.7074 44.1613Z" fill="black" fill-opacity="0.26"/>
<path d="M131.289 51.3226C131.289 51.9818 130.755 52.5161 130.096 52.5161C129.437 52.5161 128.902 51.9818 128.902 51.3226C128.902 50.6634 129.437 50.129 130.096 50.129C130.755 50.129 131.289 50.6634 131.289 51.3226Z" fill="black" fill-opacity="0.26"/>
<path d="M16.7074 51.3226C16.7074 51.9818 16.173 52.5161 15.5139 52.5161C14.8547 52.5161 14.3203 51.9818 14.3203 51.3226C14.3203 50.6634 14.8547 50.129 15.5139 50.129C16.173 50.129 16.7074 50.6634 16.7074 51.3226Z" fill="black" fill-opacity="0.26"/>
<path d="M131.289 58.4839C131.289 59.1431 130.755 59.6774 130.096 59.6774C129.437 59.6774 128.902 59.1431 128.902 58.4839C128.902 57.8247 129.437 57.2903 130.096 57.2903C130.755 57.2903 131.289 57.8247 131.289 58.4839Z" fill="black" fill-opacity="0.26"/>
<path d="M16.7074 58.4839C16.7074 59.1431 16.173 59.6774 15.5139 59.6774C14.8547 59.6774 14.3203 59.1431 14.3203 58.4839C14.3203 57.8247 14.8547 57.2903 15.5139 57.2903C16.173 57.2903 16.7074 57.8247 16.7074 58.4839Z" fill="black" fill-opacity="0.26"/>
<path d="M131.289 65.6451C131.289 66.3043 130.755 66.8387 130.096 66.8387C129.437 66.8387 128.902 66.3043 128.902 65.6451C128.902 64.986 129.437 64.4516 130.096 64.4516C130.755 64.4516 131.289 64.986 131.289 65.6451Z" fill="black" fill-opacity="0.26"/>
<path d="M16.7074 65.6451C16.7074 66.3043 16.173 66.8387 15.5139 66.8387C14.8547 66.8387 14.3203 66.3043 14.3203 65.6451C14.3203 64.986 14.8547 64.4516 15.5139 64.4516C16.173 64.4516 16.7074 64.986 16.7074 65.6451Z" fill="black" fill-opacity="0.26"/>
<path d="M131.289 72.8064C131.289 73.4656 130.755 74 130.096 74C129.437 74 128.902 73.4656 128.902 72.8064C128.902 72.1473 129.437 71.6129 130.096 71.6129C130.755 71.6129 131.289 72.1473 131.289 72.8064Z" fill="black" fill-opacity="0.26"/>
<path d="M16.7074 72.8064C16.7074 73.4656 16.173 74 15.5139 74C14.8547 74 14.3203 73.4656 14.3203 72.8064C14.3203 72.1473 14.8547 71.6129 15.5139 71.6129C16.173 71.6129 16.7074 72.1473 16.7074 72.8064Z" fill="black" fill-opacity="0.26"/>
<path d="M138.452 1.19355C138.452 1.85273 137.917 2.3871 137.258 2.3871C136.599 2.3871 136.064 1.85273 136.064 1.19355C136.064 0.53437 136.599 0 137.258 0C137.917 0 138.452 0.53437 138.452 1.19355Z" fill="black" fill-opacity="0.26"/>
<path d="M23.8715 1.19355C23.8715 1.85273 23.3371 2.3871 22.6779 2.3871C22.0187 2.3871 21.4844 1.85273 21.4844 1.19355C21.4844 0.53437 22.0187 0 22.6779 0C23.3371 0 23.8715 0.53437 23.8715 1.19355Z" fill="black" fill-opacity="0.26"/>
<path d="M138.452 8.35483C138.452 9.01401 137.917 9.54838 137.258 9.54838C136.599 9.54838 136.064 9.01401 136.064 8.35483C136.064 7.69566 136.599 7.16129 137.258 7.16129C137.917 7.16129 138.452 7.69566 138.452 8.35483Z" fill="black" fill-opacity="0.26"/>
<path d="M23.8715 8.35483C23.8715 9.01401 23.3371 9.54838 22.6779 9.54838C22.0187 9.54838 21.4844 9.01401 21.4844 8.35483C21.4844 7.69566 22.0187 7.16129 22.6779 7.16129C23.3371 7.16129 23.8715 7.69566 23.8715 8.35483Z" fill="black" fill-opacity="0.26"/>
<path d="M138.452 15.5161C138.452 16.1753 137.917 16.7097 137.258 16.7097C136.599 16.7097 136.064 16.1753 136.064 15.5161C136.064 14.857 136.599 14.3226 137.258 14.3226C137.917 14.3226 138.452 14.857 138.452 15.5161Z" fill="black" fill-opacity="0.26"/>
<path d="M23.8715 15.5161C23.8715 16.1753 23.3371 16.7097 22.6779 16.7097C22.0187 16.7097 21.4844 16.1753 21.4844 15.5161C21.4844 14.857 22.0187 14.3226 22.6779 14.3226C23.3371 14.3226 23.8715 14.857 23.8715 15.5161Z" fill="black" fill-opacity="0.26"/>
<path d="M138.452 22.6774C138.452 23.3366 137.917 23.871 137.258 23.871C136.599 23.871 136.064 23.3366 136.064 22.6774C136.064 22.0183 136.599 21.4839 137.258 21.4839C137.917 21.4839 138.452 22.0183 138.452 22.6774Z" fill="black" fill-opacity="0.26"/>
<path d="M23.8715 22.6774C23.8715 23.3366 23.3371 23.871 22.6779 23.871C22.0187 23.871 21.4844 23.3366 21.4844 22.6774C21.4844 22.0183 22.0187 21.4839 22.6779 21.4839C23.3371 21.4839 23.8715 22.0183 23.8715 22.6774Z" fill="black" fill-opacity="0.26"/>
<path d="M138.452 29.8387C138.452 30.4979 137.917 31.0322 137.258 31.0322C136.599 31.0322 136.064 30.4979 136.064 29.8387C136.064 29.1795 136.599 28.6451 137.258 28.6451C137.917 28.6451 138.452 29.1795 138.452 29.8387Z" fill="black" fill-opacity="0.26"/>
<path d="M23.8715 29.8387C23.8715 30.4979 23.3371 31.0322 22.6779 31.0322C22.0187 31.0322 21.4844 30.4979 21.4844 29.8387C21.4844 29.1795 22.0187 28.6451 22.6779 28.6451C23.3371 28.6451 23.8715 29.1795 23.8715 29.8387Z" fill="black" fill-opacity="0.26"/>
<path d="M138.452 37C138.452 37.6592 137.917 38.1936 137.258 38.1936C136.599 38.1936 136.064 37.6592 136.064 37C136.064 36.3408 136.599 35.8065 137.258 35.8065C137.917 35.8065 138.452 36.3408 138.452 37Z" fill="black" fill-opacity="0.26"/>
<path d="M23.8715 37C23.8715 37.6592 23.3371 38.1936 22.6779 38.1936C22.0187 38.1936 21.4844 37.6592 21.4844 37C21.4844 36.3408 22.0187 35.8065 22.6779 35.8065C23.3371 35.8065 23.8715 36.3408 23.8715 37Z" fill="black" fill-opacity="0.26"/>
<path d="M138.452 44.1613C138.452 44.8205 137.917 45.3548 137.258 45.3548C136.599 45.3548 136.064 44.8205 136.064 44.1613C136.064 43.5021 136.599 42.9677 137.258 42.9677C137.917 42.9677 138.452 43.5021 138.452 44.1613Z" fill="black" fill-opacity="0.26"/>
<path d="M23.8715 44.1613C23.8715 44.8205 23.3371 45.3548 22.6779 45.3548C22.0187 45.3548 21.4844 44.8205 21.4844 44.1613C21.4844 43.5021 22.0187 42.9677 22.6779 42.9677C23.3371 42.9677 23.8715 43.5021 23.8715 44.1613Z" fill="black" fill-opacity="0.26"/>
<path d="M138.452 51.3226C138.452 51.9818 137.917 52.5161 137.258 52.5161C136.599 52.5161 136.064 51.9818 136.064 51.3226C136.064 50.6634 136.599 50.129 137.258 50.129C137.917 50.129 138.452 50.6634 138.452 51.3226Z" fill="black" fill-opacity="0.26"/>
<path d="M23.8715 51.3226C23.8715 51.9818 23.3371 52.5161 22.6779 52.5161C22.0187 52.5161 21.4844 51.9818 21.4844 51.3226C21.4844 50.6634 22.0187 50.129 22.6779 50.129C23.3371 50.129 23.8715 50.6634 23.8715 51.3226Z" fill="black" fill-opacity="0.26"/>
<path d="M138.452 58.4839C138.452 59.1431 137.917 59.6774 137.258 59.6774C136.599 59.6774 136.064 59.1431 136.064 58.4839C136.064 57.8247 136.599 57.2903 137.258 57.2903C137.917 57.2903 138.452 57.8247 138.452 58.4839Z" fill="black" fill-opacity="0.26"/>
<path d="M23.8715 58.4839C23.8715 59.1431 23.3371 59.6774 22.6779 59.6774C22.0187 59.6774 21.4844 59.1431 21.4844 58.4839C21.4844 57.8247 22.0187 57.2903 22.6779 57.2903C23.3371 57.2903 23.8715 57.8247 23.8715 58.4839Z" fill="black" fill-opacity="0.26"/>
<path d="M138.452 65.6451C138.452 66.3043 137.917 66.8387 137.258 66.8387C136.599 66.8387 136.064 66.3043 136.064 65.6451C136.064 64.986 136.599 64.4516 137.258 64.4516C137.917 64.4516 138.452 64.986 138.452 65.6451Z" fill="black" fill-opacity="0.26"/>
<path d="M23.8715 65.6451C23.8715 66.3043 23.3371 66.8387 22.6779 66.8387C22.0187 66.8387 21.4844 66.3043 21.4844 65.6451C21.4844 64.986 22.0187 64.4516 22.6779 64.4516C23.3371 64.4516 23.8715 64.986 23.8715 65.6451Z" fill="black" fill-opacity="0.26"/>
<path d="M138.452 72.8064C138.452 73.4656 137.917 74 137.258 74C136.599 74 136.064 73.4656 136.064 72.8064C136.064 72.1473 136.599 71.6129 137.258 71.6129C137.917 71.6129 138.452 72.1473 138.452 72.8064Z" fill="black" fill-opacity="0.26"/>
<path d="M23.8715 72.8064C23.8715 73.4656 23.3371 74 22.6779 74C22.0187 74 21.4844 73.4656 21.4844 72.8064C21.4844 72.1473 22.0187 71.6129 22.6779 71.6129C23.3371 71.6129 23.8715 72.1473 23.8715 72.8064Z" fill="black" fill-opacity="0.26"/>
<path d="M145.614 1.19355C145.614 1.85273 145.079 2.3871 144.42 2.3871C143.761 2.3871 143.227 1.85273 143.227 1.19355C143.227 0.53437 143.761 0 144.42 0C145.079 0 145.614 0.53437 145.614 1.19355Z" fill="black" fill-opacity="0.26"/>
<path d="M31.0336 1.19355C31.0336 1.85273 30.4992 2.3871 29.84 2.3871C29.1809 2.3871 28.6465 1.85273 28.6465 1.19355C28.6465 0.53437 29.1809 0 29.84 0C30.4992 0 31.0336 0.53437 31.0336 1.19355Z" fill="black" fill-opacity="0.26"/>
<path d="M145.614 8.35483C145.614 9.01401 145.079 9.54838 144.42 9.54838C143.761 9.54838 143.227 9.01401 143.227 8.35483C143.227 7.69566 143.761 7.16129 144.42 7.16129C145.079 7.16129 145.614 7.69566 145.614 8.35483Z" fill="black" fill-opacity="0.26"/>
<path d="M31.0336 8.35483C31.0336 9.01401 30.4992 9.54838 29.84 9.54838C29.1809 9.54838 28.6465 9.01401 28.6465 8.35483C28.6465 7.69566 29.1809 7.16129 29.84 7.16129C30.4992 7.16129 31.0336 7.69566 31.0336 8.35483Z" fill="black" fill-opacity="0.26"/>
<path d="M145.614 15.5161C145.614 16.1753 145.079 16.7097 144.42 16.7097C143.761 16.7097 143.227 16.1753 143.227 15.5161C143.227 14.857 143.761 14.3226 144.42 14.3226C145.079 14.3226 145.614 14.857 145.614 15.5161Z" fill="black" fill-opacity="0.26"/>
<path d="M31.0336 15.5161C31.0336 16.1753 30.4992 16.7097 29.84 16.7097C29.1809 16.7097 28.6465 16.1753 28.6465 15.5161C28.6465 14.857 29.1809 14.3226 29.84 14.3226C30.4992 14.3226 31.0336 14.857 31.0336 15.5161Z" fill="black" fill-opacity="0.26"/>
<path d="M145.614 22.6774C145.614 23.3366 145.079 23.871 144.42 23.871C143.761 23.871 143.227 23.3366 143.227 22.6774C143.227 22.0183 143.761 21.4839 144.42 21.4839C145.079 21.4839 145.614 22.0183 145.614 22.6774Z" fill="black" fill-opacity="0.26"/>
<path d="M31.0336 22.6774C31.0336 23.3366 30.4992 23.871 29.84 23.871C29.1809 23.871 28.6465 23.3366 28.6465 22.6774C28.6465 22.0183 29.1809 21.4839 29.84 21.4839C30.4992 21.4839 31.0336 22.0183 31.0336 22.6774Z" fill="black" fill-opacity="0.26"/>
<path d="M145.614 29.8387C145.614 30.4979 145.079 31.0322 144.42 31.0322C143.761 31.0322 143.227 30.4979 143.227 29.8387C143.227 29.1795 143.761 28.6451 144.42 28.6451C145.079 28.6451 145.614 29.1795 145.614 29.8387Z" fill="black" fill-opacity="0.26"/>
<path d="M31.0336 29.8387C31.0336 30.4979 30.4992 31.0322 29.84 31.0322C29.1809 31.0322 28.6465 30.4979 28.6465 29.8387C28.6465 29.1795 29.1809 28.6451 29.84 28.6451C30.4992 28.6451 31.0336 29.1795 31.0336 29.8387Z" fill="black" fill-opacity="0.26"/>
<path d="M145.614 37C145.614 37.6592 145.079 38.1936 144.42 38.1936C143.761 38.1936 143.227 37.6592 143.227 37C143.227 36.3408 143.761 35.8065 144.42 35.8065C145.079 35.8065 145.614 36.3408 145.614 37Z" fill="black" fill-opacity="0.26"/>
<path d="M31.0336 37C31.0336 37.6592 30.4992 38.1936 29.84 38.1936C29.1809 38.1936 28.6465 37.6592 28.6465 37C28.6465 36.3408 29.1809 35.8065 29.84 35.8065C30.4992 35.8065 31.0336 36.3408 31.0336 37Z" fill="black" fill-opacity="0.26"/>
<path d="M145.614 44.1613C145.614 44.8205 145.079 45.3548 144.42 45.3548C143.761 45.3548 143.227 44.8205 143.227 44.1613C143.227 43.5021 143.761 42.9677 144.42 42.9677C145.079 42.9677 145.614 43.5021 145.614 44.1613Z" fill="black" fill-opacity="0.26"/>
<path d="M31.0336 44.1613C31.0336 44.8205 30.4992 45.3548 29.84 45.3548C29.1809 45.3548 28.6465 44.8205 28.6465 44.1613C28.6465 43.5021 29.1809 42.9677 29.84 42.9677C30.4992 42.9677 31.0336 43.5021 31.0336 44.1613Z" fill="black" fill-opacity="0.26"/>
<path d="M145.614 51.3226C145.614 51.9818 145.079 52.5161 144.42 52.5161C143.761 52.5161 143.227 51.9818 143.227 51.3226C143.227 50.6634 143.761 50.129 144.42 50.129C145.079 50.129 145.614 50.6634 145.614 51.3226Z" fill="black" fill-opacity="0.26"/>
<path d="M31.0336 51.3226C31.0336 51.9818 30.4992 52.5161 29.84 52.5161C29.1809 52.5161 28.6465 51.9818 28.6465 51.3226C28.6465 50.6634 29.1809 50.129 29.84 50.129C30.4992 50.129 31.0336 50.6634 31.0336 51.3226Z" fill="black" fill-opacity="0.26"/>
<path d="M145.614 58.4839C145.614 59.1431 145.079 59.6774 144.42 59.6774C143.761 59.6774 143.227 59.1431 143.227 58.4839C143.227 57.8247 143.761 57.2903 144.42 57.2903C145.079 57.2903 145.614 57.8247 145.614 58.4839Z" fill="black" fill-opacity="0.26"/>
<path d="M31.0336 58.4839C31.0336 59.1431 30.4992 59.6774 29.84 59.6774C29.1809 59.6774 28.6465 59.1431 28.6465 58.4839C28.6465 57.8247 29.1809 57.2903 29.84 57.2903C30.4992 57.2903 31.0336 57.8247 31.0336 58.4839Z" fill="black" fill-opacity="0.26"/>
<path d="M145.614 65.6451C145.614 66.3043 145.079 66.8387 144.42 66.8387C143.761 66.8387 143.227 66.3043 143.227 65.6451C143.227 64.986 143.761 64.4516 144.42 64.4516C145.079 64.4516 145.614 64.986 145.614 65.6451Z" fill="black" fill-opacity="0.26"/>
<path d="M31.0336 65.6451C31.0336 66.3043 30.4992 66.8387 29.84 66.8387C29.1809 66.8387 28.6465 66.3043 28.6465 65.6451C28.6465 64.986 29.1809 64.4516 29.84 64.4516C30.4992 64.4516 31.0336 64.986 31.0336 65.6451Z" fill="black" fill-opacity="0.26"/>
<path d="M145.614 72.8064C145.614 73.4656 145.079 74 144.42 74C143.761 74 143.227 73.4656 143.227 72.8064C143.227 72.1473 143.761 71.6129 144.42 71.6129C145.079 71.6129 145.614 72.1473 145.614 72.8064Z" fill="black" fill-opacity="0.26"/>
<path d="M31.0336 72.8064C31.0336 73.4656 30.4992 74 29.84 74C29.1809 74 28.6465 73.4656 28.6465 72.8064C28.6465 72.1473 29.1809 71.6129 29.84 71.6129C30.4992 71.6129 31.0336 72.1473 31.0336 72.8064Z" fill="black" fill-opacity="0.26"/>
<path d="M152.774 1.19355C152.774 1.85273 152.239 2.3871 151.58 2.3871C150.921 2.3871 150.387 1.85273 150.387 1.19355C150.387 0.53437 150.921 0 151.58 0C152.239 0 152.774 0.53437 152.774 1.19355Z" fill="black" fill-opacity="0.26"/>
<path d="M38.1936 1.19355C38.1936 1.85273 37.6592 2.3871 37 2.3871C36.3409 2.3871 35.8065 1.85273 35.8065 1.19355C35.8065 0.53437 36.3409 0 37 0C37.6592 0 38.1936 0.53437 38.1936 1.19355Z" fill="black" fill-opacity="0.26"/>
<path d="M152.774 8.35483C152.774 9.01401 152.239 9.54838 151.58 9.54838C150.921 9.54838 150.387 9.01401 150.387 8.35483C150.387 7.69565 150.921 7.16128 151.58 7.16128C152.239 7.16128 152.774 7.69565 152.774 8.35483Z" fill="black" fill-opacity="0.26"/>
<path d="M38.1936 8.35483C38.1936 9.01401 37.6592 9.54838 37 9.54838C36.3409 9.54838 35.8065 9.01401 35.8065 8.35483C35.8065 7.69565 36.3409 7.16128 37 7.16128C37.6592 7.16128 38.1936 7.69565 38.1936 8.35483Z" fill="black" fill-opacity="0.26"/>
<path d="M152.774 15.5161C152.774 16.1753 152.239 16.7097 151.58 16.7097C150.921 16.7097 150.387 16.1753 150.387 15.5161C150.387 14.857 150.921 14.3226 151.58 14.3226C152.239 14.3226 152.774 14.857 152.774 15.5161Z" fill="black" fill-opacity="0.26"/>
<path d="M38.1936 15.5161C38.1936 16.1753 37.6592 16.7097 37 16.7097C36.3409 16.7097 35.8065 16.1753 35.8065 15.5161C35.8065 14.857 36.3409 14.3226 37 14.3226C37.6592 14.3226 38.1936 14.857 38.1936 15.5161Z" fill="black" fill-opacity="0.26"/>
<path d="M152.774 22.6774C152.774 23.3366 152.239 23.871 151.58 23.871C150.921 23.871 150.387 23.3366 150.387 22.6774C150.387 22.0182 150.921 21.4839 151.58 21.4839C152.239 21.4839 152.774 22.0182 152.774 22.6774Z" fill="black" fill-opacity="0.26"/>
<path d="M38.1936 22.6774C38.1936 23.3366 37.6592 23.871 37 23.871C36.3409 23.871 35.8065 23.3366 35.8065 22.6774C35.8065 22.0182 36.3409 21.4839 37 21.4839C37.6592 21.4839 38.1936 22.0182 38.1936 22.6774Z" fill="black" fill-opacity="0.26"/>
<path d="M152.774 29.8387C152.774 30.4979 152.239 31.0322 151.58 31.0322C150.921 31.0322 150.387 30.4979 150.387 29.8387C150.387 29.1795 150.921 28.6452 151.58 28.6452C152.239 28.6452 152.774 29.1795 152.774 29.8387Z" fill="black" fill-opacity="0.26"/>
<path d="M38.1936 29.8387C38.1936 30.4979 37.6592 31.0322 37 31.0322C36.3409 31.0322 35.8065 30.4979 35.8065 29.8387C35.8065 29.1795 36.3409 28.6452 37 28.6452C37.6592 28.6452 38.1936 29.1795 38.1936 29.8387Z" fill="black" fill-opacity="0.26"/>
<path d="M152.774 37C152.774 37.6592 152.239 38.1936 151.58 38.1936C150.921 38.1936 150.387 37.6592 150.387 37C150.387 36.3408 150.921 35.8065 151.58 35.8065C152.239 35.8065 152.774 36.3408 152.774 37Z" fill="black" fill-opacity="0.26"/>
<path d="M38.1936 37C38.1936 37.6592 37.6592 38.1936 37 38.1936C36.3409 38.1936 35.8065 37.6592 35.8065 37C35.8065 36.3408 36.3409 35.8065 37 35.8065C37.6592 35.8065 38.1936 36.3408 38.1936 37Z" fill="black" fill-opacity="0.26"/>
<path d="M152.774 44.1613C152.774 44.8205 152.239 45.3548 151.58 45.3548C150.921 45.3548 150.387 44.8205 150.387 44.1613C150.387 43.5021 150.921 42.9677 151.58 42.9677C152.239 42.9677 152.774 43.5021 152.774 44.1613Z" fill="black" fill-opacity="0.26"/>
<path d="M38.1936 44.1613C38.1936 44.8205 37.6592 45.3548 37 45.3548C36.3409 45.3548 35.8065 44.8205 35.8065 44.1613C35.8065 43.5021 36.3409 42.9677 37 42.9677C37.6592 42.9677 38.1936 43.5021 38.1936 44.1613Z" fill="black" fill-opacity="0.26"/>
<path d="M152.774 51.3226C152.774 51.9817 152.239 52.5161 151.58 52.5161C150.921 52.5161 150.387 51.9817 150.387 51.3226C150.387 50.6634 150.921 50.129 151.58 50.129C152.239 50.129 152.774 50.6634 152.774 51.3226Z" fill="black" fill-opacity="0.26"/>
<path d="M38.1936 51.3226C38.1936 51.9817 37.6592 52.5161 37 52.5161C36.3409 52.5161 35.8065 51.9817 35.8065 51.3226C35.8065 50.6634 36.3409 50.129 37 50.129C37.6592 50.129 38.1936 50.6634 38.1936 51.3226Z" fill="black" fill-opacity="0.26"/>
<path d="M152.774 58.4839C152.774 59.1431 152.239 59.6774 151.58 59.6774C150.921 59.6774 150.387 59.1431 150.387 58.4839C150.387 57.8247 150.921 57.2903 151.58 57.2903C152.239 57.2903 152.774 57.8247 152.774 58.4839Z" fill="black" fill-opacity="0.26"/>
<path d="M38.1936 58.4839C38.1936 59.1431 37.6592 59.6774 37 59.6774C36.3409 59.6774 35.8065 59.1431 35.8065 58.4839C35.8065 57.8247 36.3409 57.2903 37 57.2903C37.6592 57.2903 38.1936 57.8247 38.1936 58.4839Z" fill="black" fill-opacity="0.26"/>
<path d="M152.774 65.6452C152.774 66.3043 152.239 66.8387 151.58 66.8387C150.921 66.8387 150.387 66.3043 150.387 65.6452C150.387 64.986 150.921 64.4516 151.58 64.4516C152.239 64.4516 152.774 64.986 152.774 65.6452Z" fill="black" fill-opacity="0.26"/>
<path d="M38.1936 65.6452C38.1936 66.3043 37.6592 66.8387 37 66.8387C36.3409 66.8387 35.8065 66.3043 35.8065 65.6452C35.8065 64.986 36.3409 64.4516 37 64.4516C37.6592 64.4516 38.1936 64.986 38.1936 65.6452Z" fill="black" fill-opacity="0.26"/>
<path d="M152.774 72.8064C152.774 73.4656 152.239 74 151.58 74C150.921 74 150.387 73.4656 150.387 72.8064C150.387 72.1473 150.921 71.6129 151.58 71.6129C152.239 71.6129 152.774 72.1473 152.774 72.8064Z" fill="black" fill-opacity="0.26"/>
<path d="M38.1936 72.8064C38.1936 73.4656 37.6592 74 37 74C36.3409 74 35.8065 73.4656 35.8065 72.8064C35.8065 72.1473 36.3409 71.6129 37 71.6129C37.6592 71.6129 38.1936 72.1473 38.1936 72.8064Z" fill="black" fill-opacity="0.26"/>
<path d="M159.936 1.19355C159.936 1.85273 159.402 2.3871 158.742 2.3871C158.083 2.3871 157.549 1.85273 157.549 1.19355C157.549 0.53437 158.083 0 158.742 0C159.402 0 159.936 0.53437 159.936 1.19355Z" fill="black" fill-opacity="0.26"/>
<path d="M45.3539 1.19355C45.3539 1.85273 44.8195 2.3871 44.1603 2.3871C43.5012 2.3871 42.9668 1.85273 42.9668 1.19355C42.9668 0.53437 43.5012 0 44.1603 0C44.8195 0 45.3539 0.53437 45.3539 1.19355Z" fill="black" fill-opacity="0.26"/>
<path d="M159.936 8.35483C159.936 9.01401 159.402 9.54838 158.742 9.54838C158.083 9.54838 157.549 9.01401 157.549 8.35483C157.549 7.69565 158.083 7.16128 158.742 7.16128C159.402 7.16128 159.936 7.69565 159.936 8.35483Z" fill="black" fill-opacity="0.26"/>
<path d="M45.3539 8.35483C45.3539 9.01401 44.8195 9.54838 44.1603 9.54838C43.5012 9.54838 42.9668 9.01401 42.9668 8.35483C42.9668 7.69566 43.5012 7.16129 44.1603 7.16129C44.8195 7.16129 45.3539 7.69566 45.3539 8.35483Z" fill="black" fill-opacity="0.26"/>
<path d="M159.936 15.5161C159.936 16.1753 159.402 16.7097 158.742 16.7097C158.083 16.7097 157.549 16.1753 157.549 15.5161C157.549 14.857 158.083 14.3226 158.742 14.3226C159.402 14.3226 159.936 14.857 159.936 15.5161Z" fill="black" fill-opacity="0.26"/>
<path d="M45.3539 15.5161C45.3539 16.1753 44.8195 16.7097 44.1603 16.7097C43.5012 16.7097 42.9668 16.1753 42.9668 15.5161C42.9668 14.857 43.5012 14.3226 44.1603 14.3226C44.8195 14.3226 45.3539 14.857 45.3539 15.5161Z" fill="black" fill-opacity="0.26"/>
<path d="M159.936 22.6774C159.936 23.3366 159.402 23.871 158.742 23.871C158.083 23.871 157.549 23.3366 157.549 22.6774C157.549 22.0182 158.083 21.4839 158.742 21.4839C159.402 21.4839 159.936 22.0182 159.936 22.6774Z" fill="black" fill-opacity="0.26"/>
<path d="M45.3539 22.6774C45.3539 23.3366 44.8195 23.871 44.1603 23.871C43.5012 23.871 42.9668 23.3366 42.9668 22.6774C42.9668 22.0183 43.5012 21.4839 44.1603 21.4839C44.8195 21.4839 45.3539 22.0183 45.3539 22.6774Z" fill="black" fill-opacity="0.26"/>
<path d="M159.936 29.8387C159.936 30.4979 159.402 31.0322 158.742 31.0322C158.083 31.0322 157.549 30.4979 157.549 29.8387C157.549 29.1795 158.083 28.6452 158.742 28.6452C159.402 28.6452 159.936 29.1795 159.936 29.8387Z" fill="black" fill-opacity="0.26"/>
<path d="M45.3539 29.8387C45.3539 30.4979 44.8195 31.0322 44.1603 31.0322C43.5012 31.0322 42.9668 30.4979 42.9668 29.8387C42.9668 29.1795 43.5012 28.6451 44.1603 28.6451C44.8195 28.6451 45.3539 29.1795 45.3539 29.8387Z" fill="black" fill-opacity="0.26"/>
<path d="M159.936 37C159.936 37.6592 159.402 38.1936 158.742 38.1936C158.083 38.1936 157.549 37.6592 157.549 37C157.549 36.3408 158.083 35.8065 158.742 35.8065C159.402 35.8065 159.936 36.3408 159.936 37Z" fill="black" fill-opacity="0.26"/>
<path d="M45.3539 37C45.3539 37.6592 44.8195 38.1936 44.1603 38.1936C43.5012 38.1936 42.9668 37.6592 42.9668 37C42.9668 36.3408 43.5012 35.8065 44.1603 35.8065C44.8195 35.8065 45.3539 36.3408 45.3539 37Z" fill="black" fill-opacity="0.26"/>
<path d="M159.936 44.1613C159.936 44.8205 159.402 45.3548 158.742 45.3548C158.083 45.3548 157.549 44.8205 157.549 44.1613C157.549 43.5021 158.083 42.9677 158.742 42.9677C159.402 42.9677 159.936 43.5021 159.936 44.1613Z" fill="black" fill-opacity="0.26"/>
<path d="M45.3539 44.1613C45.3539 44.8205 44.8195 45.3548 44.1603 45.3548C43.5012 45.3548 42.9668 44.8205 42.9668 44.1613C42.9668 43.5021 43.5012 42.9677 44.1603 42.9677C44.8195 42.9677 45.3539 43.5021 45.3539 44.1613Z" fill="black" fill-opacity="0.26"/>
<path d="M159.936 51.3226C159.936 51.9817 159.402 52.5161 158.742 52.5161C158.083 52.5161 157.549 51.9817 157.549 51.3226C157.549 50.6634 158.083 50.129 158.742 50.129C159.402 50.129 159.936 50.6634 159.936 51.3226Z" fill="black" fill-opacity="0.26"/>
<path d="M45.3539 51.3226C45.3539 51.9818 44.8195 52.5161 44.1603 52.5161C43.5012 52.5161 42.9668 51.9818 42.9668 51.3226C42.9668 50.6634 43.5012 50.129 44.1603 50.129C44.8195 50.129 45.3539 50.6634 45.3539 51.3226Z" fill="black" fill-opacity="0.26"/>
<path d="M159.936 58.4839C159.936 59.1431 159.402 59.6774 158.742 59.6774C158.083 59.6774 157.549 59.1431 157.549 58.4839C157.549 57.8247 158.083 57.2903 158.742 57.2903C159.402 57.2903 159.936 57.8247 159.936 58.4839Z" fill="black" fill-opacity="0.26"/>
<path d="M45.3539 58.4839C45.3539 59.1431 44.8195 59.6774 44.1603 59.6774C43.5012 59.6774 42.9668 59.1431 42.9668 58.4839C42.9668 57.8247 43.5012 57.2903 44.1603 57.2903C44.8195 57.2903 45.3539 57.8247 45.3539 58.4839Z" fill="black" fill-opacity="0.26"/>
<path d="M159.936 65.6452C159.936 66.3043 159.402 66.8387 158.742 66.8387C158.083 66.8387 157.549 66.3043 157.549 65.6452C157.549 64.986 158.083 64.4516 158.742 64.4516C159.402 64.4516 159.936 64.986 159.936 65.6452Z" fill="black" fill-opacity="0.26"/>
<path d="M45.3539 65.6451C45.3539 66.3043 44.8195 66.8387 44.1603 66.8387C43.5012 66.8387 42.9668 66.3043 42.9668 65.6451C42.9668 64.986 43.5012 64.4516 44.1603 64.4516C44.8195 64.4516 45.3539 64.986 45.3539 65.6451Z" fill="black" fill-opacity="0.26"/>
<path d="M159.936 72.8064C159.936 73.4656 159.402 74 158.742 74C158.083 74 157.549 73.4656 157.549 72.8064C157.549 72.1473 158.083 71.6129 158.742 71.6129C159.402 71.6129 159.936 72.1473 159.936 72.8064Z" fill="black" fill-opacity="0.26"/>
<path d="M45.3539 72.8064C45.3539 73.4656 44.8195 74 44.1603 74C43.5012 74 42.9668 73.4656 42.9668 72.8064C42.9668 72.1473 43.5012 71.6129 44.1603 71.6129C44.8195 71.6129 45.3539 72.1473 45.3539 72.8064Z" fill="black" fill-opacity="0.26"/>
<path d="M167.096 1.19355C167.096 1.85273 166.562 2.3871 165.903 2.3871C165.243 2.3871 164.709 1.85273 164.709 1.19355C164.709 0.53437 165.243 0 165.903 0C166.562 0 167.096 0.53437 167.096 1.19355Z" fill="black" fill-opacity="0.26"/>
<path d="M52.516 1.19355C52.516 1.85273 51.9816 2.3871 51.3225 2.3871C50.6633 2.3871 50.1289 1.85273 50.1289 1.19355C50.1289 0.53437 50.6633 0 51.3225 0C51.9816 0 52.516 0.53437 52.516 1.19355Z" fill="black" fill-opacity="0.26"/>
<path d="M167.096 8.35483C167.096 9.01401 166.562 9.54838 165.903 9.54838C165.243 9.54838 164.709 9.01401 164.709 8.35483C164.709 7.69566 165.243 7.16129 165.903 7.16129C166.562 7.16129 167.096 7.69566 167.096 8.35483Z" fill="black" fill-opacity="0.26"/>
<path d="M52.516 8.35483C52.516 9.01401 51.9816 9.54838 51.3225 9.54838C50.6633 9.54838 50.1289 9.01401 50.1289 8.35483C50.1289 7.69566 50.6633 7.16129 51.3225 7.16129C51.9816 7.16129 52.516 7.69566 52.516 8.35483Z" fill="black" fill-opacity="0.26"/>
<path d="M167.096 15.5161C167.096 16.1753 166.562 16.7097 165.903 16.7097C165.243 16.7097 164.709 16.1753 164.709 15.5161C164.709 14.857 165.243 14.3226 165.903 14.3226C166.562 14.3226 167.096 14.857 167.096 15.5161Z" fill="black" fill-opacity="0.26"/>
<path d="M52.516 15.5161C52.516 16.1753 51.9816 16.7097 51.3225 16.7097C50.6633 16.7097 50.1289 16.1753 50.1289 15.5161C50.1289 14.857 50.6633 14.3226 51.3225 14.3226C51.9816 14.3226 52.516 14.857 52.516 15.5161Z" fill="black" fill-opacity="0.26"/>
<path d="M167.096 22.6774C167.096 23.3366 166.562 23.871 165.903 23.871C165.243 23.871 164.709 23.3366 164.709 22.6774C164.709 22.0183 165.243 21.4839 165.903 21.4839C166.562 21.4839 167.096 22.0183 167.096 22.6774Z" fill="black" fill-opacity="0.26"/>
<path d="M52.516 22.6774C52.516 23.3366 51.9816 23.871 51.3225 23.871C50.6633 23.871 50.1289 23.3366 50.1289 22.6774C50.1289 22.0183 50.6633 21.4839 51.3225 21.4839C51.9816 21.4839 52.516 22.0183 52.516 22.6774Z" fill="black" fill-opacity="0.26"/>
<path d="M167.096 29.8387C167.096 30.4979 166.562 31.0322 165.903 31.0322C165.243 31.0322 164.709 30.4979 164.709 29.8387C164.709 29.1795 165.243 28.6451 165.903 28.6451C166.562 28.6451 167.096 29.1795 167.096 29.8387Z" fill="black" fill-opacity="0.26"/>
<path d="M52.516 29.8387C52.516 30.4979 51.9816 31.0322 51.3225 31.0322C50.6633 31.0322 50.1289 30.4979 50.1289 29.8387C50.1289 29.1795 50.6633 28.6451 51.3225 28.6451C51.9816 28.6451 52.516 29.1795 52.516 29.8387Z" fill="black" fill-opacity="0.26"/>
<path d="M167.096 37C167.096 37.6592 166.562 38.1936 165.903 38.1936C165.243 38.1936 164.709 37.6592 164.709 37C164.709 36.3408 165.243 35.8065 165.903 35.8065C166.562 35.8065 167.096 36.3408 167.096 37Z" fill="black" fill-opacity="0.26"/>
<path d="M52.516 37C52.516 37.6592 51.9816 38.1936 51.3225 38.1936C50.6633 38.1936 50.1289 37.6592 50.1289 37C50.1289 36.3408 50.6633 35.8065 51.3225 35.8065C51.9816 35.8065 52.516 36.3408 52.516 37Z" fill="black" fill-opacity="0.26"/>
<path d="M167.096 44.1613C167.096 44.8205 166.562 45.3548 165.903 45.3548C165.243 45.3548 164.709 44.8205 164.709 44.1613C164.709 43.5021 165.243 42.9677 165.903 42.9677C166.562 42.9677 167.096 43.5021 167.096 44.1613Z" fill="black" fill-opacity="0.26"/>
<path d="M52.516 44.1613C52.516 44.8205 51.9816 45.3548 51.3225 45.3548C50.6633 45.3548 50.1289 44.8205 50.1289 44.1613C50.1289 43.5021 50.6633 42.9677 51.3225 42.9677C51.9816 42.9677 52.516 43.5021 52.516 44.1613Z" fill="black" fill-opacity="0.26"/>
<path d="M167.096 51.3226C167.096 51.9818 166.562 52.5161 165.903 52.5161C165.243 52.5161 164.709 51.9818 164.709 51.3226C164.709 50.6634 165.243 50.129 165.903 50.129C166.562 50.129 167.096 50.6634 167.096 51.3226Z" fill="black" fill-opacity="0.26"/>
<path d="M52.516 51.3226C52.516 51.9818 51.9816 52.5161 51.3225 52.5161C50.6633 52.5161 50.1289 51.9818 50.1289 51.3226C50.1289 50.6634 50.6633 50.129 51.3225 50.129C51.9816 50.129 52.516 50.6634 52.516 51.3226Z" fill="black" fill-opacity="0.26"/>
<path d="M167.096 58.4839C167.096 59.1431 166.562 59.6774 165.903 59.6774C165.243 59.6774 164.709 59.1431 164.709 58.4839C164.709 57.8247 165.243 57.2903 165.903 57.2903C166.562 57.2903 167.096 57.8247 167.096 58.4839Z" fill="black" fill-opacity="0.26"/>
<path d="M52.516 58.4839C52.516 59.1431 51.9816 59.6774 51.3225 59.6774C50.6633 59.6774 50.1289 59.1431 50.1289 58.4839C50.1289 57.8247 50.6633 57.2903 51.3225 57.2903C51.9816 57.2903 52.516 57.8247 52.516 58.4839Z" fill="black" fill-opacity="0.26"/>
<path d="M167.096 65.6451C167.096 66.3043 166.562 66.8387 165.903 66.8387C165.243 66.8387 164.709 66.3043 164.709 65.6451C164.709 64.986 165.243 64.4516 165.903 64.4516C166.562 64.4516 167.096 64.986 167.096 65.6451Z" fill="black" fill-opacity="0.26"/>
<path d="M52.516 65.6451C52.516 66.3043 51.9816 66.8387 51.3225 66.8387C50.6633 66.8387 50.1289 66.3043 50.1289 65.6451C50.1289 64.986 50.6633 64.4516 51.3225 64.4516C51.9816 64.4516 52.516 64.986 52.516 65.6451Z" fill="black" fill-opacity="0.26"/>
<path d="M167.096 72.8064C167.096 73.4656 166.562 74 165.903 74C165.243 74 164.709 73.4656 164.709 72.8064C164.709 72.1473 165.243 71.6129 165.903 71.6129C166.562 71.6129 167.096 72.1473 167.096 72.8064Z" fill="black" fill-opacity="0.26"/>
<path d="M52.516 72.8064C52.516 73.4656 51.9816 74 51.3225 74C50.6633 74 50.1289 73.4656 50.1289 72.8064C50.1289 72.1473 50.6633 71.6129 51.3225 71.6129C51.9816 71.6129 52.516 72.1473 52.516 72.8064Z" fill="black" fill-opacity="0.26"/>
<path d="M174.258 1.19355C174.258 1.85273 173.724 2.3871 173.065 2.3871C172.405 2.3871 171.871 1.85273 171.871 1.19355C171.871 0.53437 172.405 0 173.065 0C173.724 0 174.258 0.53437 174.258 1.19355Z" fill="black" fill-opacity="0.26"/>
<path d="M59.6762 1.19355C59.6762 1.85273 59.1418 2.3871 58.4826 2.3871C57.8234 2.3871 57.2891 1.85273 57.2891 1.19355C57.2891 0.53437 57.8234 0 58.4826 0C59.1418 0 59.6762 0.53437 59.6762 1.19355Z" fill="black" fill-opacity="0.26"/>
<path d="M174.258 8.35483C174.258 9.01401 173.724 9.54838 173.065 9.54838C172.405 9.54838 171.871 9.01401 171.871 8.35483C171.871 7.69566 172.405 7.16129 173.065 7.16129C173.724 7.16129 174.258 7.69566 174.258 8.35483Z" fill="black" fill-opacity="0.26"/>
<path d="M59.6762 8.35483C59.6762 9.01401 59.1418 9.54838 58.4826 9.54838C57.8234 9.54838 57.2891 9.01401 57.2891 8.35483C57.2891 7.69566 57.8234 7.16129 58.4826 7.16129C59.1418 7.16129 59.6762 7.69566 59.6762 8.35483Z" fill="black" fill-opacity="0.26"/>
<path d="M174.258 15.5161C174.258 16.1753 173.724 16.7097 173.065 16.7097C172.405 16.7097 171.871 16.1753 171.871 15.5161C171.871 14.857 172.405 14.3226 173.065 14.3226C173.724 14.3226 174.258 14.857 174.258 15.5161Z" fill="black" fill-opacity="0.26"/>
<path d="M59.6762 15.5161C59.6762 16.1753 59.1418 16.7097 58.4826 16.7097C57.8234 16.7097 57.2891 16.1753 57.2891 15.5161C57.2891 14.857 57.8234 14.3226 58.4826 14.3226C59.1418 14.3226 59.6762 14.857 59.6762 15.5161Z" fill="black" fill-opacity="0.26"/>
<path d="M174.258 22.6774C174.258 23.3366 173.724 23.871 173.065 23.871C172.405 23.871 171.871 23.3366 171.871 22.6774C171.871 22.0183 172.405 21.4839 173.065 21.4839C173.724 21.4839 174.258 22.0183 174.258 22.6774Z" fill="black" fill-opacity="0.26"/>
<path d="M59.6762 22.6774C59.6762 23.3366 59.1418 23.871 58.4826 23.871C57.8234 23.871 57.2891 23.3366 57.2891 22.6774C57.2891 22.0183 57.8234 21.4839 58.4826 21.4839C59.1418 21.4839 59.6762 22.0183 59.6762 22.6774Z" fill="black" fill-opacity="0.26"/>
<path d="M174.258 29.8387C174.258 30.4979 173.724 31.0322 173.065 31.0322C172.405 31.0322 171.871 30.4979 171.871 29.8387C171.871 29.1795 172.405 28.6451 173.065 28.6451C173.724 28.6451 174.258 29.1795 174.258 29.8387Z" fill="black" fill-opacity="0.26"/>
<path d="M59.6762 29.8387C59.6762 30.4979 59.1418 31.0322 58.4826 31.0322C57.8234 31.0322 57.2891 30.4979 57.2891 29.8387C57.2891 29.1795 57.8234 28.6451 58.4826 28.6451C59.1418 28.6451 59.6762 29.1795 59.6762 29.8387Z" fill="black" fill-opacity="0.26"/>
<path d="M174.258 37C174.258 37.6592 173.724 38.1936 173.065 38.1936C172.405 38.1936 171.871 37.6592 171.871 37C171.871 36.3408 172.405 35.8065 173.065 35.8065C173.724 35.8065 174.258 36.3408 174.258 37Z" fill="black" fill-opacity="0.26"/>
<path d="M59.6762 37C59.6762 37.6592 59.1418 38.1936 58.4826 38.1936C57.8234 38.1936 57.2891 37.6592 57.2891 37C57.2891 36.3408 57.8234 35.8065 58.4826 35.8065C59.1418 35.8065 59.6762 36.3408 59.6762 37Z" fill="black" fill-opacity="0.26"/>
<path d="M174.258 44.1613C174.258 44.8205 173.724 45.3548 173.065 45.3548C172.405 45.3548 171.871 44.8205 171.871 44.1613C171.871 43.5021 172.405 42.9677 173.065 42.9677C173.724 42.9677 174.258 43.5021 174.258 44.1613Z" fill="black" fill-opacity="0.26"/>
<path d="M59.6762 44.1613C59.6762 44.8205 59.1418 45.3548 58.4826 45.3548C57.8234 45.3548 57.2891 44.8205 57.2891 44.1613C57.2891 43.5021 57.8234 42.9677 58.4826 42.9677C59.1418 42.9677 59.6762 43.5021 59.6762 44.1613Z" fill="black" fill-opacity="0.26"/>
<path d="M174.258 51.3226C174.258 51.9818 173.724 52.5161 173.065 52.5161C172.405 52.5161 171.871 51.9818 171.871 51.3226C171.871 50.6634 172.405 50.129 173.065 50.129C173.724 50.129 174.258 50.6634 174.258 51.3226Z" fill="black" fill-opacity="0.26"/>
<path d="M59.6762 51.3226C59.6762 51.9818 59.1418 52.5161 58.4826 52.5161C57.8234 52.5161 57.2891 51.9818 57.2891 51.3226C57.2891 50.6634 57.8234 50.129 58.4826 50.129C59.1418 50.129 59.6762 50.6634 59.6762 51.3226Z" fill="black" fill-opacity="0.26"/>
<path d="M174.258 58.4839C174.258 59.1431 173.724 59.6774 173.065 59.6774C172.405 59.6774 171.871 59.1431 171.871 58.4839C171.871 57.8247 172.405 57.2903 173.065 57.2903C173.724 57.2903 174.258 57.8247 174.258 58.4839Z" fill="black" fill-opacity="0.26"/>
<path d="M59.6762 58.4839C59.6762 59.1431 59.1418 59.6774 58.4826 59.6774C57.8234 59.6774 57.2891 59.1431 57.2891 58.4839C57.2891 57.8247 57.8234 57.2903 58.4826 57.2903C59.1418 57.2903 59.6762 57.8247 59.6762 58.4839Z" fill="black" fill-opacity="0.26"/>
<path d="M174.258 65.6451C174.258 66.3043 173.724 66.8387 173.065 66.8387C172.405 66.8387 171.871 66.3043 171.871 65.6451C171.871 64.986 172.405 64.4516 173.065 64.4516C173.724 64.4516 174.258 64.986 174.258 65.6451Z" fill="black" fill-opacity="0.26"/>
<path d="M59.6762 65.6451C59.6762 66.3043 59.1418 66.8387 58.4826 66.8387C57.8234 66.8387 57.2891 66.3043 57.2891 65.6451C57.2891 64.986 57.8234 64.4516 58.4826 64.4516C59.1418 64.4516 59.6762 64.986 59.6762 65.6451Z" fill="black" fill-opacity="0.26"/>
<path d="M174.258 72.8064C174.258 73.4656 173.724 74 173.065 74C172.405 74 171.871 73.4656 171.871 72.8064C171.871 72.1473 172.405 71.6129 173.065 71.6129C173.724 71.6129 174.258 72.1473 174.258 72.8064Z" fill="black" fill-opacity="0.26"/>
<path d="M59.6762 72.8064C59.6762 73.4656 59.1418 74 58.4826 74C57.8234 74 57.2891 73.4656 57.2891 72.8064C57.2891 72.1473 57.8234 71.6129 58.4826 71.6129C59.1418 71.6129 59.6762 72.1473 59.6762 72.8064Z" fill="black" fill-opacity="0.26"/>
<path d="M181.42 1.19355C181.42 1.85273 180.886 2.3871 180.227 2.3871C179.568 2.3871 179.033 1.85273 179.033 1.19355C179.033 0.53437 179.568 0 180.227 0C180.886 0 181.42 0.53437 181.42 1.19355Z" fill="black" fill-opacity="0.26"/>
<path d="M66.8383 1.19355C66.8383 1.85273 66.3039 2.3871 65.6447 2.3871C64.9855 2.3871 64.4512 1.85273 64.4512 1.19355C64.4512 0.53437 64.9855 0 65.6447 0C66.3039 0 66.8383 0.53437 66.8383 1.19355Z" fill="black" fill-opacity="0.26"/>
<path d="M181.42 8.35483C181.42 9.01401 180.886 9.54838 180.227 9.54838C179.568 9.54838 179.033 9.01401 179.033 8.35483C179.033 7.69566 179.568 7.16129 180.227 7.16129C180.886 7.16129 181.42 7.69566 181.42 8.35483Z" fill="black" fill-opacity="0.26"/>
<path d="M66.8383 8.35483C66.8383 9.01401 66.3039 9.54838 65.6447 9.54838C64.9855 9.54838 64.4512 9.01401 64.4512 8.35483C64.4512 7.69566 64.9855 7.16129 65.6447 7.16129C66.3039 7.16129 66.8383 7.69566 66.8383 8.35483Z" fill="black" fill-opacity="0.26"/>
<path d="M181.42 15.5161C181.42 16.1753 180.886 16.7097 180.227 16.7097C179.568 16.7097 179.033 16.1753 179.033 15.5161C179.033 14.857 179.568 14.3226 180.227 14.3226C180.886 14.3226 181.42 14.857 181.42 15.5161Z" fill="black" fill-opacity="0.26"/>
<path d="M66.8383 15.5161C66.8383 16.1753 66.3039 16.7097 65.6447 16.7097C64.9855 16.7097 64.4512 16.1753 64.4512 15.5161C64.4512 14.857 64.9855 14.3226 65.6447 14.3226C66.3039 14.3226 66.8383 14.857 66.8383 15.5161Z" fill="black" fill-opacity="0.26"/>
<path d="M181.42 22.6774C181.42 23.3366 180.886 23.871 180.227 23.871C179.568 23.871 179.033 23.3366 179.033 22.6774C179.033 22.0183 179.568 21.4839 180.227 21.4839C180.886 21.4839 181.42 22.0183 181.42 22.6774Z" fill="black" fill-opacity="0.26"/>
<path d="M66.8383 22.6774C66.8383 23.3366 66.3039 23.871 65.6447 23.871C64.9855 23.871 64.4512 23.3366 64.4512 22.6774C64.4512 22.0183 64.9855 21.4839 65.6447 21.4839C66.3039 21.4839 66.8383 22.0183 66.8383 22.6774Z" fill="black" fill-opacity="0.26"/>
<path d="M181.42 29.8387C181.42 30.4979 180.886 31.0322 180.227 31.0322C179.568 31.0322 179.033 30.4979 179.033 29.8387C179.033 29.1795 179.568 28.6451 180.227 28.6451C180.886 28.6451 181.42 29.1795 181.42 29.8387Z" fill="black" fill-opacity="0.26"/>
<path d="M66.8383 29.8387C66.8383 30.4979 66.3039 31.0322 65.6447 31.0322C64.9855 31.0322 64.4512 30.4979 64.4512 29.8387C64.4512 29.1795 64.9855 28.6451 65.6447 28.6451C66.3039 28.6451 66.8383 29.1795 66.8383 29.8387Z" fill="black" fill-opacity="0.26"/>
<path d="M181.42 37C181.42 37.6592 180.886 38.1936 180.227 38.1936C179.568 38.1936 179.033 37.6592 179.033 37C179.033 36.3408 179.568 35.8065 180.227 35.8065C180.886 35.8065 181.42 36.3408 181.42 37Z" fill="black" fill-opacity="0.26"/>
<path d="M66.8383 37C66.8383 37.6592 66.3039 38.1936 65.6447 38.1936C64.9855 38.1936 64.4512 37.6592 64.4512 37C64.4512 36.3408 64.9855 35.8065 65.6447 35.8065C66.3039 35.8065 66.8383 36.3408 66.8383 37Z" fill="black" fill-opacity="0.26"/>
<path d="M181.42 44.1613C181.42 44.8205 180.886 45.3548 180.227 45.3548C179.568 45.3548 179.033 44.8205 179.033 44.1613C179.033 43.5021 179.568 42.9677 180.227 42.9677C180.886 42.9677 181.42 43.5021 181.42 44.1613Z" fill="black" fill-opacity="0.26"/>
<path d="M66.8383 44.1613C66.8383 44.8205 66.3039 45.3548 65.6447 45.3548C64.9855 45.3548 64.4512 44.8205 64.4512 44.1613C64.4512 43.5021 64.9855 42.9677 65.6447 42.9677C66.3039 42.9677 66.8383 43.5021 66.8383 44.1613Z" fill="black" fill-opacity="0.26"/>
<path d="M181.42 51.3226C181.42 51.9818 180.886 52.5161 180.227 52.5161C179.568 52.5161 179.033 51.9818 179.033 51.3226C179.033 50.6634 179.568 50.129 180.227 50.129C180.886 50.129 181.42 50.6634 181.42 51.3226Z" fill="black" fill-opacity="0.26"/>
<path d="M66.8383 51.3226C66.8383 51.9818 66.3039 52.5161 65.6447 52.5161C64.9855 52.5161 64.4512 51.9818 64.4512 51.3226C64.4512 50.6634 64.9855 50.129 65.6447 50.129C66.3039 50.129 66.8383 50.6634 66.8383 51.3226Z" fill="black" fill-opacity="0.26"/>
<path d="M181.42 58.4839C181.42 59.1431 180.886 59.6774 180.227 59.6774C179.568 59.6774 179.033 59.1431 179.033 58.4839C179.033 57.8247 179.568 57.2903 180.227 57.2903C180.886 57.2903 181.42 57.8247 181.42 58.4839Z" fill="black" fill-opacity="0.26"/>
<path d="M66.8383 58.4839C66.8383 59.1431 66.3039 59.6774 65.6447 59.6774C64.9855 59.6774 64.4512 59.1431 64.4512 58.4839C64.4512 57.8247 64.9855 57.2903 65.6447 57.2903C66.3039 57.2903 66.8383 57.8247 66.8383 58.4839Z" fill="black" fill-opacity="0.26"/>
<path d="M181.42 65.6451C181.42 66.3043 180.886 66.8387 180.227 66.8387C179.568 66.8387 179.033 66.3043 179.033 65.6451C179.033 64.986 179.568 64.4516 180.227 64.4516C180.886 64.4516 181.42 64.986 181.42 65.6451Z" fill="black" fill-opacity="0.26"/>
<path d="M66.8383 65.6451C66.8383 66.3043 66.3039 66.8387 65.6447 66.8387C64.9855 66.8387 64.4512 66.3043 64.4512 65.6451C64.4512 64.986 64.9855 64.4516 65.6447 64.4516C66.3039 64.4516 66.8383 64.986 66.8383 65.6451Z" fill="black" fill-opacity="0.26"/>
<path d="M181.42 72.8064C181.42 73.4656 180.886 74 180.227 74C179.568 74 179.033 73.4656 179.033 72.8064C179.033 72.1473 179.568 71.6129 180.227 71.6129C180.886 71.6129 181.42 72.1473 181.42 72.8064Z" fill="black" fill-opacity="0.26"/>
<path d="M66.8383 72.8064C66.8383 73.4656 66.3039 74 65.6447 74C64.9855 74 64.4512 73.4656 64.4512 72.8064C64.4512 72.1473 64.9855 71.6129 65.6447 71.6129C66.3039 71.6129 66.8383 72.1473 66.8383 72.8064Z" fill="black" fill-opacity="0.26"/>
<path d="M188.58 1.19355C188.58 1.85273 188.046 2.3871 187.387 2.3871C186.728 2.3871 186.193 1.85273 186.193 1.19355C186.193 0.53437 186.728 0 187.387 0C188.046 0 188.58 0.53437 188.58 1.19355Z" fill="black" fill-opacity="0.26"/>
<path d="M74.0004 1.19355C74.0004 1.85273 73.466 2.3871 72.8068 2.3871C72.1477 2.3871 71.6133 1.85273 71.6133 1.19355C71.6133 0.53437 72.1477 0 72.8068 0C73.466 0 74.0004 0.53437 74.0004 1.19355Z" fill="black" fill-opacity="0.26"/>
<path d="M188.58 8.35483C188.58 9.01401 188.046 9.54838 187.387 9.54838C186.728 9.54838 186.193 9.01401 186.193 8.35483C186.193 7.69566 186.728 7.16129 187.387 7.16129C188.046 7.16129 188.58 7.69566 188.58 8.35483Z" fill="black" fill-opacity="0.26"/>
<path d="M74.0004 8.35483C74.0004 9.01401 73.466 9.54838 72.8068 9.54838C72.1477 9.54838 71.6133 9.01401 71.6133 8.35483C71.6133 7.69566 72.1477 7.16129 72.8068 7.16129C73.466 7.16129 74.0004 7.69566 74.0004 8.35483Z" fill="black" fill-opacity="0.26"/>
<path d="M188.58 15.5161C188.58 16.1753 188.046 16.7097 187.387 16.7097C186.728 16.7097 186.193 16.1753 186.193 15.5161C186.193 14.857 186.728 14.3226 187.387 14.3226C188.046 14.3226 188.58 14.857 188.58 15.5161Z" fill="black" fill-opacity="0.26"/>
<path d="M74.0004 15.5161C74.0004 16.1753 73.466 16.7097 72.8068 16.7097C72.1477 16.7097 71.6133 16.1753 71.6133 15.5161C71.6133 14.857 72.1477 14.3226 72.8068 14.3226C73.466 14.3226 74.0004 14.857 74.0004 15.5161Z" fill="black" fill-opacity="0.26"/>
<path d="M188.58 22.6774C188.58 23.3366 188.046 23.871 187.387 23.871C186.728 23.871 186.193 23.3366 186.193 22.6774C186.193 22.0183 186.728 21.4839 187.387 21.4839C188.046 21.4839 188.58 22.0183 188.58 22.6774Z" fill="black" fill-opacity="0.26"/>
<path d="M74.0004 22.6774C74.0004 23.3366 73.466 23.871 72.8068 23.871C72.1477 23.871 71.6133 23.3366 71.6133 22.6774C71.6133 22.0183 72.1477 21.4839 72.8068 21.4839C73.466 21.4839 74.0004 22.0183 74.0004 22.6774Z" fill="black" fill-opacity="0.26"/>
<path d="M188.58 29.8387C188.58 30.4979 188.046 31.0322 187.387 31.0322C186.728 31.0322 186.193 30.4979 186.193 29.8387C186.193 29.1795 186.728 28.6451 187.387 28.6451C188.046 28.6451 188.58 29.1795 188.58 29.8387Z" fill="black" fill-opacity="0.26"/>
<path d="M74.0004 29.8387C74.0004 30.4979 73.466 31.0322 72.8068 31.0322C72.1477 31.0322 71.6133 30.4979 71.6133 29.8387C71.6133 29.1795 72.1477 28.6451 72.8068 28.6451C73.466 28.6451 74.0004 29.1795 74.0004 29.8387Z" fill="black" fill-opacity="0.26"/>
<path d="M188.58 37C188.58 37.6592 188.046 38.1936 187.387 38.1936C186.728 38.1936 186.193 37.6592 186.193 37C186.193 36.3408 186.728 35.8065 187.387 35.8065C188.046 35.8065 188.58 36.3408 188.58 37Z" fill="black" fill-opacity="0.26"/>
<path d="M74.0004 37C74.0004 37.6592 73.466 38.1936 72.8068 38.1936C72.1477 38.1936 71.6133 37.6592 71.6133 37C71.6133 36.3408 72.1477 35.8065 72.8068 35.8065C73.466 35.8065 74.0004 36.3408 74.0004 37Z" fill="black" fill-opacity="0.26"/>
<path d="M188.58 44.1613C188.58 44.8205 188.046 45.3548 187.387 45.3548C186.728 45.3548 186.193 44.8205 186.193 44.1613C186.193 43.5021 186.728 42.9677 187.387 42.9677C188.046 42.9677 188.58 43.5021 188.58 44.1613Z" fill="black" fill-opacity="0.26"/>
<path d="M74.0004 44.1613C74.0004 44.8205 73.466 45.3548 72.8068 45.3548C72.1477 45.3548 71.6133 44.8205 71.6133 44.1613C71.6133 43.5021 72.1477 42.9677 72.8068 42.9677C73.466 42.9677 74.0004 43.5021 74.0004 44.1613Z" fill="black" fill-opacity="0.26"/>
<path d="M188.58 51.3226C188.58 51.9818 188.046 52.5161 187.387 52.5161C186.728 52.5161 186.193 51.9818 186.193 51.3226C186.193 50.6634 186.728 50.129 187.387 50.129C188.046 50.129 188.58 50.6634 188.58 51.3226Z" fill="black" fill-opacity="0.26"/>
<path d="M74.0004 51.3226C74.0004 51.9818 73.466 52.5161 72.8068 52.5161C72.1477 52.5161 71.6133 51.9818 71.6133 51.3226C71.6133 50.6634 72.1477 50.129 72.8068 50.129C73.466 50.129 74.0004 50.6634 74.0004 51.3226Z" fill="black" fill-opacity="0.26"/>
<path d="M188.58 58.4839C188.58 59.1431 188.046 59.6774 187.387 59.6774C186.728 59.6774 186.193 59.1431 186.193 58.4839C186.193 57.8247 186.728 57.2903 187.387 57.2903C188.046 57.2903 188.58 57.8247 188.58 58.4839Z" fill="black" fill-opacity="0.26"/>
<path d="M74.0004 58.4839C74.0004 59.1431 73.466 59.6774 72.8068 59.6774C72.1477 59.6774 71.6133 59.1431 71.6133 58.4839C71.6133 57.8247 72.1477 57.2903 72.8068 57.2903C73.466 57.2903 74.0004 57.8247 74.0004 58.4839Z" fill="black" fill-opacity="0.26"/>
<path d="M188.58 65.6451C188.58 66.3043 188.046 66.8387 187.387 66.8387C186.728 66.8387 186.193 66.3043 186.193 65.6451C186.193 64.986 186.728 64.4516 187.387 64.4516C188.046 64.4516 188.58 64.986 188.58 65.6451Z" fill="black" fill-opacity="0.26"/>
<path d="M74.0004 65.6451C74.0004 66.3043 73.466 66.8387 72.8068 66.8387C72.1477 66.8387 71.6133 66.3043 71.6133 65.6451C71.6133 64.986 72.1477 64.4516 72.8068 64.4516C73.466 64.4516 74.0004 64.986 74.0004 65.6451Z" fill="black" fill-opacity="0.26"/>
<path d="M188.58 72.8064C188.58 73.4656 188.046 74 187.387 74C186.728 74 186.193 73.4656 186.193 72.8064C186.193 72.1473 186.728 71.6129 187.387 71.6129C188.046 71.6129 188.58 72.1473 188.58 72.8064Z" fill="black" fill-opacity="0.26"/>
<path d="M74.0004 72.8064C74.0004 73.4656 73.466 74 72.8068 74C72.1477 74 71.6133 73.4656 71.6133 72.8064C71.6133 72.1473 72.1477 71.6129 72.8068 71.6129C73.466 71.6129 74.0004 72.1473 74.0004 72.8064Z" fill="black" fill-opacity="0.26"/>
<path d="M195.741 1.19355C195.741 1.85273 195.206 2.3871 194.547 2.3871C193.888 2.3871 193.354 1.85273 193.354 1.19355C193.354 0.53437 193.888 0 194.547 0C195.206 0 195.741 0.53437 195.741 1.19355Z" fill="black" fill-opacity="0.26"/>
<path d="M81.1624 1.19355C81.1624 1.85273 80.6281 2.3871 79.9689 2.3871C79.3097 2.3871 78.7753 1.85273 78.7753 1.19355C78.7753 0.53437 79.3097 0 79.9689 0C80.6281 0 81.1624 0.53437 81.1624 1.19355Z" fill="black" fill-opacity="0.26"/>
<path d="M195.741 8.35483C195.741 9.01401 195.206 9.54838 194.547 9.54838C193.888 9.54838 193.354 9.01401 193.354 8.35483C193.354 7.69565 193.888 7.16128 194.547 7.16128C195.206 7.16128 195.741 7.69565 195.741 8.35483Z" fill="black" fill-opacity="0.26"/>
<path d="M81.1624 8.35483C81.1624 9.01401 80.6281 9.54838 79.9689 9.54838C79.3097 9.54838 78.7753 9.01401 78.7753 8.35483C78.7753 7.69565 79.3097 7.16128 79.9689 7.16128C80.6281 7.16128 81.1624 7.69565 81.1624 8.35483Z" fill="black" fill-opacity="0.26"/>
<path d="M195.741 15.5161C195.741 16.1753 195.206 16.7097 194.547 16.7097C193.888 16.7097 193.354 16.1753 193.354 15.5161C193.354 14.857 193.888 14.3226 194.547 14.3226C195.206 14.3226 195.741 14.857 195.741 15.5161Z" fill="black" fill-opacity="0.26"/>
<path d="M81.1624 15.5161C81.1624 16.1753 80.6281 16.7097 79.9689 16.7097C79.3097 16.7097 78.7753 16.1753 78.7753 15.5161C78.7753 14.857 79.3097 14.3226 79.9689 14.3226C80.6281 14.3226 81.1624 14.857 81.1624 15.5161Z" fill="black" fill-opacity="0.26"/>
<path d="M195.741 22.6774C195.741 23.3366 195.206 23.871 194.547 23.871C193.888 23.871 193.354 23.3366 193.354 22.6774C193.354 22.0182 193.888 21.4839 194.547 21.4839C195.206 21.4839 195.741 22.0182 195.741 22.6774Z" fill="black" fill-opacity="0.26"/>
<path d="M81.1624 22.6774C81.1624 23.3366 80.6281 23.871 79.9689 23.871C79.3097 23.871 78.7753 23.3366 78.7753 22.6774C78.7753 22.0182 79.3097 21.4839 79.9689 21.4839C80.6281 21.4839 81.1624 22.0182 81.1624 22.6774Z" fill="black" fill-opacity="0.26"/>
<path d="M195.741 29.8387C195.741 30.4979 195.206 31.0322 194.547 31.0322C193.888 31.0322 193.354 30.4979 193.354 29.8387C193.354 29.1795 193.888 28.6452 194.547 28.6452C195.206 28.6452 195.741 29.1795 195.741 29.8387Z" fill="black" fill-opacity="0.26"/>
<path d="M81.1624 29.8387C81.1624 30.4979 80.6281 31.0322 79.9689 31.0322C79.3097 31.0322 78.7753 30.4979 78.7753 29.8387C78.7753 29.1795 79.3097 28.6452 79.9689 28.6452C80.6281 28.6452 81.1624 29.1795 81.1624 29.8387Z" fill="black" fill-opacity="0.26"/>
<path d="M195.741 37C195.741 37.6592 195.206 38.1936 194.547 38.1936C193.888 38.1936 193.354 37.6592 193.354 37C193.354 36.3408 193.888 35.8065 194.547 35.8065C195.206 35.8065 195.741 36.3408 195.741 37Z" fill="black" fill-opacity="0.26"/>
<path d="M81.1624 37C81.1624 37.6592 80.6281 38.1936 79.9689 38.1936C79.3097 38.1936 78.7753 37.6592 78.7753 37C78.7753 36.3408 79.3097 35.8065 79.9689 35.8065C80.6281 35.8065 81.1624 36.3408 81.1624 37Z" fill="black" fill-opacity="0.26"/>
<path d="M195.741 44.1613C195.741 44.8205 195.206 45.3548 194.547 45.3548C193.888 45.3548 193.354 44.8205 193.354 44.1613C193.354 43.5021 193.888 42.9677 194.547 42.9677C195.206 42.9677 195.741 43.5021 195.741 44.1613Z" fill="black" fill-opacity="0.26"/>
<path d="M81.1624 44.1613C81.1624 44.8205 80.6281 45.3548 79.9689 45.3548C79.3097 45.3548 78.7753 44.8205 78.7753 44.1613C78.7753 43.5021 79.3097 42.9677 79.9689 42.9677C80.6281 42.9677 81.1624 43.5021 81.1624 44.1613Z" fill="black" fill-opacity="0.26"/>
<path d="M195.741 51.3226C195.741 51.9817 195.206 52.5161 194.547 52.5161C193.888 52.5161 193.354 51.9817 193.354 51.3226C193.354 50.6634 193.888 50.129 194.547 50.129C195.206 50.129 195.741 50.6634 195.741 51.3226Z" fill="black" fill-opacity="0.26"/>
<path d="M81.1624 51.3226C81.1624 51.9817 80.6281 52.5161 79.9689 52.5161C79.3097 52.5161 78.7753 51.9817 78.7753 51.3226C78.7753 50.6634 79.3097 50.129 79.9689 50.129C80.6281 50.129 81.1624 50.6634 81.1624 51.3226Z" fill="black" fill-opacity="0.26"/>
<path d="M195.741 58.4839C195.741 59.1431 195.206 59.6774 194.547 59.6774C193.888 59.6774 193.354 59.1431 193.354 58.4839C193.354 57.8247 193.888 57.2903 194.547 57.2903C195.206 57.2903 195.741 57.8247 195.741 58.4839Z" fill="black" fill-opacity="0.26"/>
<path d="M81.1624 58.4839C81.1624 59.1431 80.6281 59.6774 79.9689 59.6774C79.3097 59.6774 78.7753 59.1431 78.7753 58.4839C78.7753 57.8247 79.3097 57.2903 79.9689 57.2903C80.6281 57.2903 81.1624 57.8247 81.1624 58.4839Z" fill="black" fill-opacity="0.26"/>
<path d="M195.741 65.6452C195.741 66.3043 195.206 66.8387 194.547 66.8387C193.888 66.8387 193.354 66.3043 193.354 65.6452C193.354 64.986 193.888 64.4516 194.547 64.4516C195.206 64.4516 195.741 64.986 195.741 65.6452Z" fill="black" fill-opacity="0.26"/>
<path d="M81.1624 65.6452C81.1624 66.3043 80.6281 66.8387 79.9689 66.8387C79.3097 66.8387 78.7753 66.3043 78.7753 65.6452C78.7753 64.986 79.3097 64.4516 79.9689 64.4516C80.6281 64.4516 81.1624 64.986 81.1624 65.6452Z" fill="black" fill-opacity="0.26"/>
<path d="M195.741 72.8064C195.741 73.4656 195.206 74 194.547 74C193.888 74 193.354 73.4656 193.354 72.8064C193.354 72.1473 193.888 71.6129 194.547 71.6129C195.206 71.6129 195.741 72.1473 195.741 72.8064Z" fill="black" fill-opacity="0.26"/>
<path d="M81.1624 72.8064C81.1624 73.4656 80.6281 74 79.9689 74C79.3097 74 78.7753 73.4656 78.7753 72.8064C78.7753 72.1473 79.3097 71.6129 79.9689 71.6129C80.6281 71.6129 81.1624 72.1473 81.1624 72.8064Z" fill="black" fill-opacity="0.26"/>
<path d="M202.903 1.19355C202.903 1.85273 202.368 2.3871 201.709 2.3871C201.05 2.3871 200.516 1.85273 200.516 1.19355C200.516 0.53437 201.05 0 201.709 0C202.368 0 202.903 0.53437 202.903 1.19355Z" fill="black" fill-opacity="0.26"/>
<path d="M88.3226 1.19355C88.3226 1.85273 87.7883 2.3871 87.1291 2.3871C86.4699 2.3871 85.9355 1.85273 85.9355 1.19355C85.9355 0.53437 86.4699 0 87.1291 0C87.7883 0 88.3226 0.53437 88.3226 1.19355Z" fill="black" fill-opacity="0.26"/>
<path d="M202.903 8.35483C202.903 9.01401 202.368 9.54838 201.709 9.54838C201.05 9.54838 200.516 9.01401 200.516 8.35483C200.516 7.69566 201.05 7.16129 201.709 7.16129C202.368 7.16129 202.903 7.69566 202.903 8.35483Z" fill="black" fill-opacity="0.26"/>
<path d="M88.3226 8.35483C88.3226 9.01401 87.7883 9.54838 87.1291 9.54838C86.4699 9.54838 85.9355 9.01401 85.9355 8.35483C85.9355 7.69566 86.4699 7.16129 87.1291 7.16129C87.7883 7.16129 88.3226 7.69566 88.3226 8.35483Z" fill="black" fill-opacity="0.26"/>
<path d="M202.903 15.5161C202.903 16.1753 202.368 16.7097 201.709 16.7097C201.05 16.7097 200.516 16.1753 200.516 15.5161C200.516 14.857 201.05 14.3226 201.709 14.3226C202.368 14.3226 202.903 14.857 202.903 15.5161Z" fill="black" fill-opacity="0.26"/>
<path d="M88.3226 15.5161C88.3226 16.1753 87.7883 16.7097 87.1291 16.7097C86.4699 16.7097 85.9355 16.1753 85.9355 15.5161C85.9355 14.857 86.4699 14.3226 87.1291 14.3226C87.7883 14.3226 88.3226 14.857 88.3226 15.5161Z" fill="black" fill-opacity="0.26"/>
<path d="M202.903 22.6774C202.903 23.3366 202.368 23.871 201.709 23.871C201.05 23.871 200.516 23.3366 200.516 22.6774C200.516 22.0183 201.05 21.4839 201.709 21.4839C202.368 21.4839 202.903 22.0183 202.903 22.6774Z" fill="black" fill-opacity="0.26"/>
<path d="M88.3226 22.6774C88.3226 23.3366 87.7883 23.871 87.1291 23.871C86.4699 23.871 85.9355 23.3366 85.9355 22.6774C85.9355 22.0183 86.4699 21.4839 87.1291 21.4839C87.7883 21.4839 88.3226 22.0183 88.3226 22.6774Z" fill="black" fill-opacity="0.26"/>
<path d="M202.903 29.8387C202.903 30.4979 202.368 31.0322 201.709 31.0322C201.05 31.0322 200.516 30.4979 200.516 29.8387C200.516 29.1795 201.05 28.6451 201.709 28.6451C202.368 28.6451 202.903 29.1795 202.903 29.8387Z" fill="black" fill-opacity="0.26"/>
<path d="M88.3226 29.8387C88.3226 30.4979 87.7883 31.0322 87.1291 31.0322C86.4699 31.0322 85.9355 30.4979 85.9355 29.8387C85.9355 29.1795 86.4699 28.6451 87.1291 28.6451C87.7883 28.6451 88.3226 29.1795 88.3226 29.8387Z" fill="black" fill-opacity="0.26"/>
<path d="M202.903 37C202.903 37.6592 202.368 38.1936 201.709 38.1936C201.05 38.1936 200.516 37.6592 200.516 37C200.516 36.3408 201.05 35.8065 201.709 35.8065C202.368 35.8065 202.903 36.3408 202.903 37Z" fill="black" fill-opacity="0.26"/>
<path d="M88.3226 37C88.3226 37.6592 87.7883 38.1936 87.1291 38.1936C86.4699 38.1936 85.9355 37.6592 85.9355 37C85.9355 36.3408 86.4699 35.8065 87.1291 35.8065C87.7883 35.8065 88.3226 36.3408 88.3226 37Z" fill="black" fill-opacity="0.26"/>
<path d="M202.903 44.1613C202.903 44.8205 202.368 45.3548 201.709 45.3548C201.05 45.3548 200.516 44.8205 200.516 44.1613C200.516 43.5021 201.05 42.9677 201.709 42.9677C202.368 42.9677 202.903 43.5021 202.903 44.1613Z" fill="black" fill-opacity="0.26"/>
<path d="M88.3226 44.1613C88.3226 44.8205 87.7883 45.3548 87.1291 45.3548C86.4699 45.3548 85.9355 44.8205 85.9355 44.1613C85.9355 43.5021 86.4699 42.9677 87.1291 42.9677C87.7883 42.9677 88.3226 43.5021 88.3226 44.1613Z" fill="black" fill-opacity="0.26"/>
<path d="M202.903 51.3226C202.903 51.9818 202.368 52.5161 201.709 52.5161C201.05 52.5161 200.516 51.9818 200.516 51.3226C200.516 50.6634 201.05 50.129 201.709 50.129C202.368 50.129 202.903 50.6634 202.903 51.3226Z" fill="black" fill-opacity="0.26"/>
<path d="M88.3226 51.3226C88.3226 51.9818 87.7883 52.5161 87.1291 52.5161C86.4699 52.5161 85.9355 51.9818 85.9355 51.3226C85.9355 50.6634 86.4699 50.129 87.1291 50.129C87.7883 50.129 88.3226 50.6634 88.3226 51.3226Z" fill="black" fill-opacity="0.26"/>
<path d="M202.903 58.4839C202.903 59.1431 202.368 59.6774 201.709 59.6774C201.05 59.6774 200.516 59.1431 200.516 58.4839C200.516 57.8247 201.05 57.2903 201.709 57.2903C202.368 57.2903 202.903 57.8247 202.903 58.4839Z" fill="black" fill-opacity="0.26"/>
<path d="M88.3226 58.4839C88.3226 59.1431 87.7883 59.6774 87.1291 59.6774C86.4699 59.6774 85.9355 59.1431 85.9355 58.4839C85.9355 57.8247 86.4699 57.2903 87.1291 57.2903C87.7883 57.2903 88.3226 57.8247 88.3226 58.4839Z" fill="black" fill-opacity="0.26"/>
<path d="M202.903 65.6451C202.903 66.3043 202.368 66.8387 201.709 66.8387C201.05 66.8387 200.516 66.3043 200.516 65.6451C200.516 64.986 201.05 64.4516 201.709 64.4516C202.368 64.4516 202.903 64.986 202.903 65.6451Z" fill="black" fill-opacity="0.26"/>
<path d="M88.3226 65.6451C88.3226 66.3043 87.7883 66.8387 87.1291 66.8387C86.4699 66.8387 85.9355 66.3043 85.9355 65.6451C85.9355 64.986 86.4699 64.4516 87.1291 64.4516C87.7883 64.4516 88.3226 64.986 88.3226 65.6451Z" fill="black" fill-opacity="0.26"/>
<path d="M202.903 72.8064C202.903 73.4656 202.368 74 201.709 74C201.05 74 200.516 73.4656 200.516 72.8064C200.516 72.1473 201.05 71.6129 201.709 71.6129C202.368 71.6129 202.903 72.1473 202.903 72.8064Z" fill="black" fill-opacity="0.26"/>
<path d="M88.3226 72.8064C88.3226 73.4656 87.7883 74 87.1291 74C86.4699 74 85.9355 73.4656 85.9355 72.8064C85.9355 72.1473 86.4699 71.6129 87.1291 71.6129C87.7883 71.6129 88.3226 72.1473 88.3226 72.8064Z" fill="black" fill-opacity="0.26"/>
<path d="M210.065 1.19355C210.065 1.85273 209.53 2.3871 208.871 2.3871C208.212 2.3871 207.678 1.85273 207.678 1.19355C207.678 0.53437 208.212 0 208.871 0C209.53 0 210.065 0.53437 210.065 1.19355Z" fill="black" fill-opacity="0.26"/>
<path d="M95.4828 1.19355C95.4828 1.85273 94.9484 2.3871 94.2893 2.3871C93.6301 2.3871 93.0957 1.85273 93.0957 1.19355C93.0957 0.53437 93.6301 0 94.2893 0C94.9484 0 95.4828 0.53437 95.4828 1.19355Z" fill="black" fill-opacity="0.26"/>
<path d="M210.065 8.35483C210.065 9.01401 209.53 9.54838 208.871 9.54838C208.212 9.54838 207.678 9.01401 207.678 8.35483C207.678 7.69566 208.212 7.16129 208.871 7.16129C209.53 7.16129 210.065 7.69566 210.065 8.35483Z" fill="black" fill-opacity="0.26"/>
<path d="M95.4828 8.35483C95.4828 9.01401 94.9484 9.54838 94.2893 9.54838C93.6301 9.54838 93.0957 9.01401 93.0957 8.35483C93.0957 7.69566 93.6301 7.16129 94.2893 7.16129C94.9484 7.16129 95.4828 7.69566 95.4828 8.35483Z" fill="black" fill-opacity="0.26"/>
<path d="M210.065 15.5161C210.065 16.1753 209.53 16.7097 208.871 16.7097C208.212 16.7097 207.678 16.1753 207.678 15.5161C207.678 14.857 208.212 14.3226 208.871 14.3226C209.53 14.3226 210.065 14.857 210.065 15.5161Z" fill="black" fill-opacity="0.26"/>
<path d="M95.4828 15.5161C95.4828 16.1753 94.9484 16.7097 94.2893 16.7097C93.6301 16.7097 93.0957 16.1753 93.0957 15.5161C93.0957 14.857 93.6301 14.3226 94.2893 14.3226C94.9484 14.3226 95.4828 14.857 95.4828 15.5161Z" fill="black" fill-opacity="0.26"/>
<path d="M210.065 22.6774C210.065 23.3366 209.53 23.871 208.871 23.871C208.212 23.871 207.678 23.3366 207.678 22.6774C207.678 22.0183 208.212 21.4839 208.871 21.4839C209.53 21.4839 210.065 22.0183 210.065 22.6774Z" fill="black" fill-opacity="0.26"/>
<path d="M95.4828 22.6774C95.4828 23.3366 94.9484 23.871 94.2893 23.871C93.6301 23.871 93.0957 23.3366 93.0957 22.6774C93.0957 22.0183 93.6301 21.4839 94.2893 21.4839C94.9484 21.4839 95.4828 22.0183 95.4828 22.6774Z" fill="black" fill-opacity="0.26"/>
<path d="M210.065 29.8387C210.065 30.4979 209.53 31.0322 208.871 31.0322C208.212 31.0322 207.678 30.4979 207.678 29.8387C207.678 29.1795 208.212 28.6451 208.871 28.6451C209.53 28.6451 210.065 29.1795 210.065 29.8387Z" fill="black" fill-opacity="0.26"/>
<path d="M95.4828 29.8387C95.4828 30.4979 94.9484 31.0322 94.2893 31.0322C93.6301 31.0322 93.0957 30.4979 93.0957 29.8387C93.0957 29.1795 93.6301 28.6451 94.2893 28.6451C94.9484 28.6451 95.4828 29.1795 95.4828 29.8387Z" fill="black" fill-opacity="0.26"/>
<path d="M210.065 37C210.065 37.6592 209.53 38.1936 208.871 38.1936C208.212 38.1936 207.678 37.6592 207.678 37C207.678 36.3408 208.212 35.8065 208.871 35.8065C209.53 35.8065 210.065 36.3408 210.065 37Z" fill="black" fill-opacity="0.26"/>
<path d="M95.4828 37C95.4828 37.6592 94.9484 38.1936 94.2893 38.1936C93.6301 38.1936 93.0957 37.6592 93.0957 37C93.0957 36.3408 93.6301 35.8065 94.2893 35.8065C94.9484 35.8065 95.4828 36.3408 95.4828 37Z" fill="black" fill-opacity="0.26"/>
<path d="M210.065 44.1613C210.065 44.8205 209.53 45.3548 208.871 45.3548C208.212 45.3548 207.678 44.8205 207.678 44.1613C207.678 43.5021 208.212 42.9677 208.871 42.9677C209.53 42.9677 210.065 43.5021 210.065 44.1613Z" fill="black" fill-opacity="0.26"/>
<path d="M95.4828 44.1613C95.4828 44.8205 94.9484 45.3548 94.2893 45.3548C93.6301 45.3548 93.0957 44.8205 93.0957 44.1613C93.0957 43.5021 93.6301 42.9677 94.2893 42.9677C94.9484 42.9677 95.4828 43.5021 95.4828 44.1613Z" fill="black" fill-opacity="0.26"/>
<path d="M210.065 51.3226C210.065 51.9818 209.53 52.5161 208.871 52.5161C208.212 52.5161 207.678 51.9818 207.678 51.3226C207.678 50.6634 208.212 50.129 208.871 50.129C209.53 50.129 210.065 50.6634 210.065 51.3226Z" fill="black" fill-opacity="0.26"/>
<path d="M95.4828 51.3226C95.4828 51.9818 94.9484 52.5161 94.2893 52.5161C93.6301 52.5161 93.0957 51.9818 93.0957 51.3226C93.0957 50.6634 93.6301 50.129 94.2893 50.129C94.9484 50.129 95.4828 50.6634 95.4828 51.3226Z" fill="black" fill-opacity="0.26"/>
<path d="M210.065 58.4839C210.065 59.1431 209.53 59.6774 208.871 59.6774C208.212 59.6774 207.678 59.1431 207.678 58.4839C207.678 57.8247 208.212 57.2903 208.871 57.2903C209.53 57.2903 210.065 57.8247 210.065 58.4839Z" fill="black" fill-opacity="0.26"/>
<path d="M95.4828 58.4839C95.4828 59.1431 94.9484 59.6774 94.2893 59.6774C93.6301 59.6774 93.0957 59.1431 93.0957 58.4839C93.0957 57.8247 93.6301 57.2903 94.2893 57.2903C94.9484 57.2903 95.4828 57.8247 95.4828 58.4839Z" fill="black" fill-opacity="0.26"/>
<path d="M210.065 65.6451C210.065 66.3043 209.53 66.8387 208.871 66.8387C208.212 66.8387 207.678 66.3043 207.678 65.6451C207.678 64.986 208.212 64.4516 208.871 64.4516C209.53 64.4516 210.065 64.986 210.065 65.6451Z" fill="black" fill-opacity="0.26"/>
<path d="M95.4828 65.6451C95.4828 66.3043 94.9484 66.8387 94.2893 66.8387C93.6301 66.8387 93.0957 66.3043 93.0957 65.6451C93.0957 64.986 93.6301 64.4516 94.2893 64.4516C94.9484 64.4516 95.4828 64.986 95.4828 65.6451Z" fill="black" fill-opacity="0.26"/>
<path d="M210.065 72.8064C210.065 73.4656 209.53 74 208.871 74C208.212 74 207.678 73.4656 207.678 72.8064C207.678 72.1473 208.212 71.6129 208.871 71.6129C209.53 71.6129 210.065 72.1473 210.065 72.8064Z" fill="black" fill-opacity="0.26"/>
<path d="M95.4828 72.8064C95.4828 73.4656 94.9484 74 94.2893 74C93.6301 74 93.0957 73.4656 93.0957 72.8064C93.0957 72.1473 93.6301 71.6129 94.2893 71.6129C94.9484 71.6129 95.4828 72.1473 95.4828 72.8064Z" fill="black" fill-opacity="0.26"/>
<path d="M217.227 1.19355C217.227 1.85273 216.693 2.3871 216.033 2.3871C215.374 2.3871 214.84 1.85273 214.84 1.19355C214.84 0.53437 215.374 0 216.033 0C216.693 0 217.227 0.53437 217.227 1.19355Z" fill="black" fill-opacity="0.26"/>
<path d="M102.645 1.19355C102.645 1.85273 102.111 2.3871 101.451 2.3871C100.792 2.3871 100.258 1.85273 100.258 1.19355C100.258 0.53437 100.792 0 101.451 0C102.111 0 102.645 0.53437 102.645 1.19355Z" fill="black" fill-opacity="0.26"/>
<path d="M217.227 8.35483C217.227 9.01401 216.693 9.54838 216.033 9.54838C215.374 9.54838 214.84 9.01401 214.84 8.35483C214.84 7.69566 215.374 7.16129 216.033 7.16129C216.693 7.16129 217.227 7.69566 217.227 8.35483Z" fill="black" fill-opacity="0.26"/>
<path d="M102.645 8.35483C102.645 9.01401 102.111 9.54838 101.451 9.54838C100.792 9.54838 100.258 9.01401 100.258 8.35483C100.258 7.69566 100.792 7.16129 101.451 7.16129C102.111 7.16129 102.645 7.69566 102.645 8.35483Z" fill="black" fill-opacity="0.26"/>
<path d="M217.227 15.5161C217.227 16.1753 216.693 16.7097 216.033 16.7097C215.374 16.7097 214.84 16.1753 214.84 15.5161C214.84 14.857 215.374 14.3226 216.033 14.3226C216.693 14.3226 217.227 14.857 217.227 15.5161Z" fill="black" fill-opacity="0.26"/>
<path d="M102.645 15.5161C102.645 16.1753 102.111 16.7097 101.451 16.7097C100.792 16.7097 100.258 16.1753 100.258 15.5161C100.258 14.857 100.792 14.3226 101.451 14.3226C102.111 14.3226 102.645 14.857 102.645 15.5161Z" fill="black" fill-opacity="0.26"/>
<path d="M217.227 22.6774C217.227 23.3366 216.693 23.871 216.033 23.871C215.374 23.871 214.84 23.3366 214.84 22.6774C214.84 22.0183 215.374 21.4839 216.033 21.4839C216.693 21.4839 217.227 22.0183 217.227 22.6774Z" fill="black" fill-opacity="0.26"/>
<path d="M102.645 22.6774C102.645 23.3366 102.111 23.871 101.451 23.871C100.792 23.871 100.258 23.3366 100.258 22.6774C100.258 22.0183 100.792 21.4839 101.451 21.4839C102.111 21.4839 102.645 22.0183 102.645 22.6774Z" fill="black" fill-opacity="0.26"/>
<path d="M217.227 29.8387C217.227 30.4979 216.693 31.0322 216.033 31.0322C215.374 31.0322 214.84 30.4979 214.84 29.8387C214.84 29.1795 215.374 28.6451 216.033 28.6451C216.693 28.6451 217.227 29.1795 217.227 29.8387Z" fill="black" fill-opacity="0.26"/>
<path d="M102.645 29.8387C102.645 30.4979 102.111 31.0322 101.451 31.0322C100.792 31.0322 100.258 30.4979 100.258 29.8387C100.258 29.1795 100.792 28.6451 101.451 28.6451C102.111 28.6451 102.645 29.1795 102.645 29.8387Z" fill="black" fill-opacity="0.26"/>
<path d="M217.227 37C217.227 37.6592 216.693 38.1936 216.033 38.1936C215.374 38.1936 214.84 37.6592 214.84 37C214.84 36.3408 215.374 35.8065 216.033 35.8065C216.693 35.8065 217.227 36.3408 217.227 37Z" fill="black" fill-opacity="0.26"/>
<path d="M102.645 37C102.645 37.6592 102.111 38.1936 101.451 38.1936C100.792 38.1936 100.258 37.6592 100.258 37C100.258 36.3408 100.792 35.8065 101.451 35.8065C102.111 35.8065 102.645 36.3408 102.645 37Z" fill="black" fill-opacity="0.26"/>
<path d="M217.227 44.1613C217.227 44.8205 216.693 45.3548 216.033 45.3548C215.374 45.3548 214.84 44.8205 214.84 44.1613C214.84 43.5021 215.374 42.9677 216.033 42.9677C216.693 42.9677 217.227 43.5021 217.227 44.1613Z" fill="black" fill-opacity="0.26"/>
<path d="M102.645 44.1613C102.645 44.8205 102.111 45.3548 101.451 45.3548C100.792 45.3548 100.258 44.8205 100.258 44.1613C100.258 43.5021 100.792 42.9677 101.451 42.9677C102.111 42.9677 102.645 43.5021 102.645 44.1613Z" fill="black" fill-opacity="0.26"/>
<path d="M217.227 51.3226C217.227 51.9818 216.693 52.5161 216.033 52.5161C215.374 52.5161 214.84 51.9818 214.84 51.3226C214.84 50.6634 215.374 50.129 216.033 50.129C216.693 50.129 217.227 50.6634 217.227 51.3226Z" fill="black" fill-opacity="0.26"/>
<path d="M102.645 51.3226C102.645 51.9818 102.111 52.5161 101.451 52.5161C100.792 52.5161 100.258 51.9818 100.258 51.3226C100.258 50.6634 100.792 50.129 101.451 50.129C102.111 50.129 102.645 50.6634 102.645 51.3226Z" fill="black" fill-opacity="0.26"/>
<path d="M217.227 58.4839C217.227 59.1431 216.693 59.6774 216.033 59.6774C215.374 59.6774 214.84 59.1431 214.84 58.4839C214.84 57.8247 215.374 57.2903 216.033 57.2903C216.693 57.2903 217.227 57.8247 217.227 58.4839Z" fill="black" fill-opacity="0.26"/>
<path d="M102.645 58.4839C102.645 59.1431 102.111 59.6774 101.451 59.6774C100.792 59.6774 100.258 59.1431 100.258 58.4839C100.258 57.8247 100.792 57.2903 101.451 57.2903C102.111 57.2903 102.645 57.8247 102.645 58.4839Z" fill="black" fill-opacity="0.26"/>
<path d="M217.227 65.6451C217.227 66.3043 216.693 66.8387 216.033 66.8387C215.374 66.8387 214.84 66.3043 214.84 65.6451C214.84 64.986 215.374 64.4516 216.033 64.4516C216.693 64.4516 217.227 64.986 217.227 65.6451Z" fill="black" fill-opacity="0.26"/>
<path d="M102.645 65.6451C102.645 66.3043 102.111 66.8387 101.451 66.8387C100.792 66.8387 100.258 66.3043 100.258 65.6451C100.258 64.986 100.792 64.4516 101.451 64.4516C102.111 64.4516 102.645 64.986 102.645 65.6451Z" fill="black" fill-opacity="0.26"/>
<path d="M217.227 72.8064C217.227 73.4656 216.693 74 216.033 74C215.374 74 214.84 73.4656 214.84 72.8064C214.84 72.1473 215.374 71.6129 216.033 71.6129C216.693 71.6129 217.227 72.1473 217.227 72.8064Z" fill="black" fill-opacity="0.26"/>
<path d="M102.645 72.8064C102.645 73.4656 102.111 74 101.451 74C100.792 74 100.258 73.4656 100.258 72.8064C100.258 72.1473 100.792 71.6129 101.451 71.6129C102.111 71.6129 102.645 72.1473 102.645 72.8064Z" fill="black" fill-opacity="0.26"/>
<path d="M224.387 1.19355C224.387 1.85273 223.853 2.3871 223.194 2.3871C222.534 2.3871 222 1.85273 222 1.19355C222 0.53437 222.534 0 223.194 0C223.853 0 224.387 0.53437 224.387 1.19355Z" fill="black" fill-opacity="0.26"/>
<path d="M109.807 1.19355C109.807 1.85273 109.273 2.3871 108.613 2.3871C107.954 2.3871 107.42 1.85273 107.42 1.19355C107.42 0.53437 107.954 0 108.613 0C109.273 0 109.807 0.53437 109.807 1.19355Z" fill="black" fill-opacity="0.26"/>
<path d="M224.387 8.35483C224.387 9.01401 223.853 9.54838 223.194 9.54838C222.534 9.54838 222 9.01401 222 8.35483C222 7.69566 222.534 7.16129 223.194 7.16129C223.853 7.16129 224.387 7.69566 224.387 8.35483Z" fill="black" fill-opacity="0.26"/>
<path d="M109.807 8.35483C109.807 9.01401 109.273 9.54838 108.613 9.54838C107.954 9.54838 107.42 9.01401 107.42 8.35483C107.42 7.69566 107.954 7.16129 108.613 7.16129C109.273 7.16129 109.807 7.69566 109.807 8.35483Z" fill="black" fill-opacity="0.26"/>
<path d="M224.387 15.5161C224.387 16.1753 223.853 16.7097 223.194 16.7097C222.534 16.7097 222 16.1753 222 15.5161C222 14.857 222.534 14.3226 223.194 14.3226C223.853 14.3226 224.387 14.857 224.387 15.5161Z" fill="black" fill-opacity="0.26"/>
<path d="M109.807 15.5161C109.807 16.1753 109.273 16.7097 108.613 16.7097C107.954 16.7097 107.42 16.1753 107.42 15.5161C107.42 14.857 107.954 14.3226 108.613 14.3226C109.273 14.3226 109.807 14.857 109.807 15.5161Z" fill="black" fill-opacity="0.26"/>
<path d="M224.387 22.6774C224.387 23.3366 223.853 23.871 223.194 23.871C222.534 23.871 222 23.3366 222 22.6774C222 22.0183 222.534 21.4839 223.194 21.4839C223.853 21.4839 224.387 22.0183 224.387 22.6774Z" fill="black" fill-opacity="0.26"/>
<path d="M109.807 22.6774C109.807 23.3366 109.273 23.871 108.613 23.871C107.954 23.871 107.42 23.3366 107.42 22.6774C107.42 22.0183 107.954 21.4839 108.613 21.4839C109.273 21.4839 109.807 22.0183 109.807 22.6774Z" fill="black" fill-opacity="0.26"/>
<path d="M224.387 29.8387C224.387 30.4979 223.853 31.0322 223.194 31.0322C222.534 31.0322 222 30.4979 222 29.8387C222 29.1795 222.534 28.6451 223.194 28.6451C223.853 28.6451 224.387 29.1795 224.387 29.8387Z" fill="black" fill-opacity="0.26"/>
<path d="M109.807 29.8387C109.807 30.4979 109.273 31.0322 108.613 31.0322C107.954 31.0322 107.42 30.4979 107.42 29.8387C107.42 29.1795 107.954 28.6451 108.613 28.6451C109.273 28.6451 109.807 29.1795 109.807 29.8387Z" fill="black" fill-opacity="0.26"/>
<path d="M224.387 37C224.387 37.6592 223.853 38.1936 223.194 38.1936C222.534 38.1936 222 37.6592 222 37C222 36.3408 222.534 35.8065 223.194 35.8065C223.853 35.8065 224.387 36.3408 224.387 37Z" fill="black" fill-opacity="0.26"/>
<path d="M109.807 37C109.807 37.6592 109.273 38.1936 108.613 38.1936C107.954 38.1936 107.42 37.6592 107.42 37C107.42 36.3408 107.954 35.8065 108.613 35.8065C109.273 35.8065 109.807 36.3408 109.807 37Z" fill="black" fill-opacity="0.26"/>
<path d="M224.387 44.1613C224.387 44.8205 223.853 45.3548 223.194 45.3548C222.534 45.3548 222 44.8205 222 44.1613C222 43.5021 222.534 42.9677 223.194 42.9677C223.853 42.9677 224.387 43.5021 224.387 44.1613Z" fill="black" fill-opacity="0.26"/>
<path d="M109.807 44.1613C109.807 44.8205 109.273 45.3548 108.613 45.3548C107.954 45.3548 107.42 44.8205 107.42 44.1613C107.42 43.5021 107.954 42.9677 108.613 42.9677C109.273 42.9677 109.807 43.5021 109.807 44.1613Z" fill="black" fill-opacity="0.26"/>
<path d="M224.387 51.3226C224.387 51.9818 223.853 52.5161 223.194 52.5161C222.534 52.5161 222 51.9818 222 51.3226C222 50.6634 222.534 50.129 223.194 50.129C223.853 50.129 224.387 50.6634 224.387 51.3226Z" fill="black" fill-opacity="0.26"/>
<path d="M109.807 51.3226C109.807 51.9818 109.273 52.5161 108.613 52.5161C107.954 52.5161 107.42 51.9818 107.42 51.3226C107.42 50.6634 107.954 50.129 108.613 50.129C109.273 50.129 109.807 50.6634 109.807 51.3226Z" fill="black" fill-opacity="0.26"/>
<path d="M224.387 58.4839C224.387 59.1431 223.853 59.6774 223.194 59.6774C222.534 59.6774 222 59.1431 222 58.4839C222 57.8247 222.534 57.2903 223.194 57.2903C223.853 57.2903 224.387 57.8247 224.387 58.4839Z" fill="black" fill-opacity="0.26"/>
<path d="M109.807 58.4839C109.807 59.1431 109.273 59.6774 108.613 59.6774C107.954 59.6774 107.42 59.1431 107.42 58.4839C107.42 57.8247 107.954 57.2903 108.613 57.2903C109.273 57.2903 109.807 57.8247 109.807 58.4839Z" fill="black" fill-opacity="0.26"/>
<path d="M224.387 65.6451C224.387 66.3043 223.853 66.8387 223.194 66.8387C222.534 66.8387 222 66.3043 222 65.6451C222 64.986 222.534 64.4516 223.194 64.4516C223.853 64.4516 224.387 64.986 224.387 65.6451Z" fill="black" fill-opacity="0.26"/>
<path d="M109.807 65.6451C109.807 66.3043 109.273 66.8387 108.613 66.8387C107.954 66.8387 107.42 66.3043 107.42 65.6451C107.42 64.986 107.954 64.4516 108.613 64.4516C109.273 64.4516 109.807 64.986 109.807 65.6451Z" fill="black" fill-opacity="0.26"/>
<path d="M224.387 72.8064C224.387 73.4656 223.853 74 223.194 74C222.534 74 222 73.4656 222 72.8064C222 72.1473 222.534 71.6129 223.194 71.6129C223.853 71.6129 224.387 72.1473 224.387 72.8064Z" fill="black" fill-opacity="0.26"/>
<path d="M109.807 72.8064C109.807 73.4656 109.273 74 108.613 74C107.954 74 107.42 73.4656 107.42 72.8064C107.42 72.1473 107.954 71.6129 108.613 71.6129C109.273 71.6129 109.807 72.1473 109.807 72.8064Z" fill="black" fill-opacity="0.26"/>
</svg>
